<svg width="380" height="351" viewBox="0 0 380 351" fill="none" xmlns="http://www.w3.org/2000/svg">
<path d="M119.654 52.9526C104.031 37.3298 82.608 33.4231 71.8039 44.2272C60.9998 55.0313 64.9065 76.4545 80.5293 92.0773C86.3076 97.9776 93.3977 102.43 101.222 105.072C107.9 107.29 113.917 111.144 118.726 116.281C118.983 116.551 119.245 116.819 119.51 117.085C130.606 128.18 145.231 131.544 152.176 124.599C159.12 117.654 155.757 103.029 144.662 91.9335C144.396 91.6675 144.128 91.406 143.858 91.1491C138.721 86.3404 134.867 80.3233 132.648 73.6454C130.007 65.8209 125.554 58.7309 119.654 52.9526Z" fill="#97CC64"/>
<mask id="mask0_0_1001" style="mask-type:luminance" maskUnits="userSpaceOnUse" x="65" y="38" width="91" height="91">
<path fill-rule="evenodd" clip-rule="evenodd" d="M119.654 52.9526C104.031 37.3298 82.608 33.4231 71.8039 44.2272C60.9998 55.0313 64.9065 76.4545 80.5293 92.0773C86.3076 97.9776 93.3977 102.43 101.222 105.072C107.9 107.29 113.917 111.144 118.726 116.281C118.983 116.551 119.245 116.819 119.51 117.085C130.606 128.18 145.231 131.544 152.176 124.599C159.12 117.654 155.757 103.029 144.662 91.9335C144.396 91.6675 144.128 91.406 143.858 91.1491C138.721 86.3404 134.867 80.3233 132.648 73.6454C130.007 65.8209 125.554 58.7309 119.654 52.9526Z" fill="white"/>
</mask>
<g mask="url(#mask0_0_1001)">
<path d="M83.1182 27.5687C56.3358 136.56 133.428 72.6273 155.79 146.063C178.152 219.499 37.3288 146.927 37.3288 146.927L32.1448 3.51147" fill="#75AA3C"/>
</g>
<path d="M95.5251 59.0561C96.1507 62.2214 95.6753 65.5054 94.1778 68.3633C93.8109 69.062 94.8698 69.6831 95.2377 68.9829C96.8889 65.835 97.4083 62.2152 96.7087 58.73C96.554 57.956 95.3708 58.2836 95.5251 59.0563V59.0561Z" fill="#75AA3C"/>
<rect x="296.973" y="113.723" width="72.8356" height="97.5255" rx="8.1863" fill="#589BF7"/>
<mask id="mask1_0_1001" style="mask-type:luminance" maskUnits="userSpaceOnUse" x="296" y="113" width="74" height="99">
<rect x="296.973" y="113.723" width="72.8356" height="97.5255" rx="8.1863" fill="white"/>
</mask>
<g mask="url(#mask1_0_1001)">
<path d="M373.11 194.579C365.441 177.603 373.171 216.685 301.792 211.249C230.413 205.813 336.409 240.363 336.409 240.363L387.078 208.838" fill="#2976DF"/>
</g>
<rect x="303.249" y="121.735" width="60.2839" height="54.6188" rx="4.88712" fill="#EFF3FC"/>
<mask id="mask2_0_1001" style="mask-type:luminance" maskUnits="userSpaceOnUse" x="303" y="121" width="61" height="56">
<rect x="303.249" y="121.735" width="60.2839" height="54.6188" rx="4.88712" fill="white"/>
</mask>
<g mask="url(#mask2_0_1001)">
<path d="M278.618 140.354C299.707 142.271 300.23 121.736 316.813 121.736C333.396 121.736 296.972 115.704 296.972 115.704L294.502 120.634" fill="#D6DCF2"/>
</g>
<rect x="307.707" y="186.113" width="49.6215" height="5.53913" rx="2.76956" fill="#2976DF"/>
<rect x="307.707" y="194.579" width="36.0899" height="5.53913" rx="2.76956" fill="#2976DF"/>
<path d="M319.299 137.75C317.534 147.318 316.701 157.034 316.813 166.762H322.615C322.766 160.778 322.685 154.483 323.996 150.046L324.583 150.321L324.384 156.5L328.227 157.084V158.449L324.341 157.859L324.206 162.066C326.65 163.759 329.57 164.627 332.541 164.545V133.28C331.367 133.347 330.19 133.231 329.052 132.935C331.531 132.027 334.226 131.883 336.789 132.52C335.989 133.106 335.033 133.443 334.042 133.487V164.551C337.49 164.456 340.839 163.629 342.575 162.066L342.441 157.865L338.597 158.449V157.084L342.397 156.507L342.198 150.322L342.785 150.047C344.095 154.484 344.017 160.779 344.167 166.763H349.969C350.082 157.034 349.249 147.318 347.482 137.751C344.836 136.264 342 135.144 339.052 134.422V132.157C335.262 131.051 331.236 131.051 327.447 132.157V134.497C324.599 135.217 321.859 136.311 319.299 137.751L319.299 137.75Z" fill="#97CC64"/>
<mask id="mask3_0_1001" style="mask-type:luminance" maskUnits="userSpaceOnUse" x="316" y="131" width="34" height="36">
<path fill-rule="evenodd" clip-rule="evenodd" d="M319.299 137.75C317.534 147.318 316.701 157.034 316.813 166.762H322.615C322.766 160.778 322.685 154.483 323.996 150.046L324.583 150.321L324.384 156.5L328.227 157.084V158.449L324.341 157.859L324.206 162.066C326.65 163.759 329.57 164.627 332.541 164.545V133.28C331.367 133.347 330.19 133.231 329.052 132.935C331.531 132.027 334.226 131.883 336.789 132.52C335.989 133.106 335.033 133.443 334.042 133.487V164.551C337.49 164.456 340.839 163.629 342.575 162.066L342.441 157.865L338.597 158.449V157.084L342.397 156.507L342.198 150.322L342.785 150.047C344.095 154.484 344.017 160.779 344.167 166.763H349.969C350.082 157.034 349.249 147.318 347.482 137.751C344.836 136.264 342 135.144 339.052 134.422V132.157C335.262 131.051 331.236 131.051 327.447 132.157V134.497C324.599 135.217 321.859 136.311 319.299 137.751L319.299 137.75Z" fill="white"/>
</mask>
<g mask="url(#mask3_0_1001)">
<path d="M307.707 144.667C319.496 150.624 318.963 136.694 325.752 134.987C332.541 133.28 318.469 131.327 318.469 131.327L316.813 134.807" fill="#75AA3C"/>
</g>
<path d="M327.697 140.797L326.465 141.619C326.368 141.678 326.296 141.771 326.263 141.88C326.216 142.052 326.277 142.235 326.418 142.344C326.559 142.452 326.752 142.465 326.906 142.375L328.139 141.553C328.236 141.494 328.307 141.401 328.34 141.292C328.388 141.12 328.326 140.937 328.185 140.828C328.044 140.72 327.851 140.707 327.697 140.797Z" fill="#75AA3C"/>
<path d="M362.161 193.488C361.239 194.581 360.141 195.513 358.912 196.245C358.713 196.371 358.65 196.632 358.769 196.836C358.888 197.039 359.146 197.112 359.354 197.001C360.648 196.233 361.806 195.255 362.78 194.107C362.945 193.933 362.945 193.661 362.78 193.488C362.608 193.319 362.332 193.319 362.161 193.488Z" fill="#2976DF"/>
<rect x="0.787262" y="113.723" width="72.8356" height="97.5255" rx="8.1863" fill="#FFC562"/>
<mask id="mask4_0_1001" style="mask-type:luminance" maskUnits="userSpaceOnUse" x="0" y="113" width="74" height="99">
<rect x="0.787262" y="113.723" width="72.8356" height="97.5255" rx="8.1863" fill="white"/>
</mask>
<g mask="url(#mask4_0_1001)">
<path d="M77.6951 115.793C86.685 222.536 35.3087 222.157 -0.0120821 218.238C-35.3329 214.319 53.212 236.915 53.212 236.915L78.1793 232.807L93.2676 172.04" fill="#D89D35"/>
</g>
<rect x="7.06306" y="121.735" width="60.2839" height="54.6188" rx="4.88712" fill="#EFF3FC"/>
<mask id="mask5_0_1001" style="mask-type:luminance" maskUnits="userSpaceOnUse" x="7" y="121" width="61" height="56">
<rect x="7.06306" y="121.735" width="60.2839" height="54.6188" rx="4.88712" fill="white"/>
</mask>
<g mask="url(#mask5_0_1001)">
<path d="M-4.3112 160.495C2.55664 112.838 46.0515 119.001 46.0515 119.001L-21.3535 116.817" fill="#D6DCF2"/>
</g>
<rect x="11.5215" y="186.113" width="49.6215" height="5.53913" rx="2.76956" fill="#E84B23"/>
<rect x="11.5215" y="194.579" width="36.0899" height="5.53913" rx="2.76956" fill="#E84B23"/>
<path d="M49.6531 133.039H44.0684C43.2704 136.177 40.4451 138.374 37.2071 138.374C33.9692 138.374 31.1439 136.177 30.3458 133.039H24.7528V133.043L14.0875 138.373L17.6454 147.266L24.7528 143.708V165.051H49.6532V143.708L56.765 147.266L60.3228 138.373L49.6531 133.039Z" fill="#FFC562"/>
<mask id="mask6_0_1001" style="mask-type:luminance" maskUnits="userSpaceOnUse" x="14" y="133" width="47" height="33">
<path fill-rule="evenodd" clip-rule="evenodd" d="M49.6531 133.039H44.0684C43.2704 136.177 40.4451 138.374 37.2071 138.374C33.9692 138.374 31.1439 136.177 30.3458 133.039H24.7528V133.043L14.0875 138.373L17.6454 147.266L24.7528 143.708V165.051H49.6532V143.708L56.765 147.266L60.3228 138.373L49.6531 133.039Z" fill="white"/>
</mask>
<g mask="url(#mask6_0_1001)">
<path d="M12.4171 146.526C14.0873 138.373 29.5363 133.837 35.4408 135.434C41.3453 137.031 27.2071 125.831 27.2071 125.831L-0.729614 133.87" fill="#D89D35"/>
</g>
<path d="M36.3671 150.346L35.1312 151.575C34.9647 151.746 34.9668 152.02 35.1359 152.189C35.305 152.358 35.5785 152.36 35.7502 152.194L36.9862 150.965C37.0997 150.855 37.145 150.692 37.1049 150.539C37.0648 150.386 36.9454 150.267 36.7926 150.227C36.6397 150.187 36.4771 150.232 36.3671 150.346Z" fill="#D89D35"/>
<path d="M65.857 198.686C65.8194 198.739 65.781 198.792 65.7418 198.844C65.768 198.809 65.7606 198.821 65.7382 198.848L65.6763 198.924C65.5971 199.02 65.5143 199.112 65.4279 199.201C65.3372 199.295 65.2428 199.385 65.1447 199.472C65.1007 199.51 65.0559 199.548 65.0103 199.586L64.934 199.647C64.9827 199.608 64.9392 199.643 64.9139 199.662C64.715 199.81 64.5053 199.944 64.2866 200.061C64.177 200.12 64.0651 200.172 63.9522 200.224C63.8776 200.258 63.9774 200.215 63.9306 200.233L63.8397 200.27C63.7787 200.293 63.7172 200.315 63.6549 200.337C63.4218 200.401 63.2849 200.642 63.3492 200.875C63.4135 201.108 63.6546 201.245 63.8877 201.181C64.9905 200.803 65.9445 200.084 66.6123 199.128C66.733 198.919 66.6629 198.652 66.4553 198.53C66.2457 198.414 65.9823 198.483 65.8563 198.686L65.857 198.686Z" fill="#D89D35"/>
<rect x="59.5103" y="90.9821" width="106.803" height="143.008" rx="12.0041" fill="#FE7578"/>
<mask id="mask7_0_1001" style="mask-type:luminance" maskUnits="userSpaceOnUse" x="59" y="90" width="108" height="144">
<rect x="59.5103" y="90.9822" width="106.803" height="143.008" rx="12.0041" fill="white"/>
</mask>
<g mask="url(#mask7_0_1001)">
<path d="M171.389 145.992C157.111 118.601 212.074 245.994 71.5144 233.99C-69.0453 221.987 182.463 278.246 182.463 278.246L200.268 178.242" fill="#E55A61"/>
</g>
<rect x="68.713" y="102.731" width="88.3979" height="80.091" rx="7.16621" fill="#EFF3FC"/>
<mask id="mask8_0_1001" style="mask-type:luminance" maskUnits="userSpaceOnUse" x="68" y="102" width="90" height="81">
<rect x="68.713" y="102.731" width="88.3979" height="80.091" rx="7.16621" fill="white"/>
</mask>
<g mask="url(#mask8_0_1001)">
<path d="M58.4082 158.964C59.8882 77.6349 155.573 102.731 155.573 102.731L47.2488 95.5168L40.8632 102.731" fill="#D6DCF2"/>
</g>
<rect x="75.2506" y="197.132" width="72.763" height="8.1223" rx="4.06115" fill="#FFC562"/>
<rect x="75.2506" y="209.546" width="52.9208" height="8.1223" rx="4.06115" fill="#FFC562"/>
<path d="M137.07 169.341L130.57 122.196C130.353 121.175 129.422 120.465 128.38 120.525H97.4439C96.4012 120.465 95.4708 121.175 95.2535 122.196L88.7544 169.341C88.7257 169.924 88.9499 170.49 89.3696 170.896C89.7892 171.301 90.3634 171.506 90.945 171.457H107.968C109.047 171.525 110.001 170.76 110.168 169.692L112.435 141.131C112.489 140.886 112.706 140.711 112.957 140.712C113.209 140.712 113.426 140.887 113.479 141.132L115.661 169.688C115.826 170.758 116.78 171.526 117.861 171.458H134.879C135.46 171.507 136.035 171.302 136.454 170.897C136.874 170.491 137.098 169.924 137.07 169.341Z" fill="#FE7578"/>
<path d="M97.6398 117.363H128.043C128.939 117.354 129.661 116.625 129.661 115.728C129.661 114.832 128.939 114.103 128.043 114.094H97.6398C97.0517 114.088 96.5058 114.398 96.21 114.906C95.9143 115.415 95.9143 116.042 96.21 116.551C96.5058 117.059 97.0517 117.369 97.6398 117.363Z" fill="#E55A61"/>
<path d="M107.629 131.4L101.002 138.629C100.445 139.238 101.35 140.148 101.909 139.537L108.536 132.307C109.093 131.699 108.188 130.789 107.629 131.4Z" fill="#E55A61"/>
<path d="M154.51 207.604C154.466 207.777 154.415 207.948 154.357 208.116C154.329 208.196 154.298 208.275 154.268 208.354C154.204 208.522 154.3 208.288 154.257 208.383C154.238 208.425 154.22 208.468 154.2 208.511C154.051 208.835 153.874 209.146 153.672 209.44C153.624 209.51 153.573 209.577 153.525 209.647C153.466 209.731 153.617 209.534 153.505 209.673L153.434 209.761C153.32 209.898 153.201 210.031 153.076 210.158C152.951 210.286 152.821 210.408 152.686 210.524C152.615 210.585 152.542 210.645 152.467 210.702C152.517 210.664 152.508 210.672 152.463 210.704C152.418 210.737 152.371 210.77 152.325 210.802C152.019 210.981 151.916 211.375 152.095 211.681C152.274 211.987 152.667 212.09 152.973 211.911C154.34 210.961 155.323 209.556 155.748 207.946C155.809 207.725 155.747 207.488 155.586 207.325C155.425 207.162 155.189 207.097 154.967 207.154C154.745 207.212 154.571 207.384 154.51 207.605L154.51 207.604Z" fill="#E55A61"/>
<rect x="204.282" y="90.9821" width="106.803" height="143.008" rx="12.0041" fill="#9A7ED9"/>
<mask id="mask9_0_1001" style="mask-type:luminance" maskUnits="userSpaceOnUse" x="204" y="90" width="108" height="144">
<rect x="204.282" y="90.9822" width="106.803" height="143.008" rx="12.0041" fill="white"/>
</mask>
<g mask="url(#mask9_0_1001)">
<path d="M311.085 168.757C305.091 153.727 315.168 241.158 249.887 233.99C184.606 226.822 327.984 259.354 327.984 259.354L339.631 205.254" fill="#6F4EB9"/>
</g>
<rect x="213.485" y="102.731" width="88.3979" height="80.091" rx="7.16621" fill="#EFF3FC"/>
<mask id="mask10_0_1001" style="mask-type:luminance" maskUnits="userSpaceOnUse" x="213" y="102" width="89" height="81">
<rect x="213.485" y="102.731" width="88.3979" height="80.091" rx="7.16621" fill="white"/>
</mask>
<g mask="url(#mask10_0_1001)">
<path d="M210.71 142.776C204.282 106.336 230.822 102.475 270.953 102.731C311.085 102.986 204.282 90.9821 204.282 90.9821L191.432 95.0907" fill="#D6DCF2"/>
</g>
<rect x="220.022" y="197.132" width="72.763" height="8.1223" rx="4.06115" fill="#6F4EB9"/>
<rect x="220.022" y="209.546" width="52.9208" height="8.1223" rx="4.06115" fill="#6F4EB9"/>
<path d="M271.179 130.485V124.045H259.23V139.377C259.23 140.231 258.538 140.923 257.684 140.923C256.83 140.923 256.137 140.231 256.137 139.377V124.045H244.19V130.602C244.19 135.684 241.246 140.306 236.64 142.455L234.301 143.547V168.366C234.301 168.83 234.485 169.274 234.812 169.602C235.14 169.929 235.584 170.113 236.048 170.113H251.867C252.697 170.114 253.412 169.53 253.579 168.718L256.829 152.923H258.536L261.786 168.718C261.953 169.53 262.669 170.114 263.499 170.113H279.318C280.283 170.113 281.066 169.331 281.066 168.366V143.432L278.726 142.34C274.12 140.19 271.177 135.568 271.179 130.485Z" fill="#9A7ED9"/>
<path d="M274.407 124.045V130.485C274.415 134.311 276.629 137.788 280.092 139.414L281.068 139.869V124.045H274.407Z" fill="#9A7ED9"/>
<path d="M240.961 130.602V124.045H234.3V139.984L235.276 139.529C238.738 137.904 240.952 134.427 240.961 130.602Z" fill="#9A7ED9"/>
<path d="M280.856 117.756C280.856 116.476 279.819 115.438 278.539 115.438H236.829C235.549 115.438 234.511 116.476 234.511 117.756V121.689H280.856V117.756Z" fill="#6F4EB9"/>
<path d="M271.805 147.781L269.998 151.998C269.831 152.305 269.932 152.69 270.228 152.876C270.534 153.052 270.926 152.95 271.106 152.646L272.914 148.429C273.08 148.121 272.98 147.737 272.683 147.55C272.377 147.374 271.985 147.477 271.805 147.781Z" fill="#6F4EB9"/>
<path d="M283.401 215.789L280.375 218.18C280.125 218.431 280.125 218.836 280.375 219.087C280.629 219.327 281.027 219.327 281.282 219.087L284.309 216.696C284.558 216.445 284.558 216.04 284.309 215.789C284.054 215.549 283.656 215.549 283.401 215.789Z" fill="#6F4EB9"/>
<path d="M178.198 109.45C166.947 105.897 168.95 80.4128 190.993 83.4102C213.036 86.4077 209.159 126.881 243.601 124.549C279.375 122.127 276.978 207.699 229.412 196C194.577 187.431 178.198 109.45 178.198 109.45Z" fill="#3A3530"/>
<mask id="mask11_0_1001" style="mask-type:luminance" maskUnits="userSpaceOnUse" x="171" y="83" width="98" height="115">
<path fill-rule="evenodd" clip-rule="evenodd" d="M178.198 109.45C166.947 105.897 168.95 80.4128 190.993 83.4102C213.036 86.4077 209.159 126.881 243.601 124.549C279.375 122.127 276.978 207.699 229.412 196C194.577 187.431 178.198 109.45 178.198 109.45Z" fill="white"/>
</mask>
<g mask="url(#mask11_0_1001)">
<path d="M251.472 196.16C254.822 175.527 211.422 169.072 214.65 160.311C217.877 151.549 221.121 141.679 211.498 137.748C201.875 133.817 194.799 155.143 194.799 155.143L191.355 172.289L197.327 185.461L252.224 199.387" fill="#190000"/>
</g>
<path d="M173.951 106.228C173.951 106.228 185.154 98.8445 194.798 104.618L193.631 109.356L176.945 110.318L173.951 106.228Z" fill="#FE7578"/>
<path d="M108.514 296.796C106.183 287.403 69.7934 164.13 191.783 164.505C313.773 164.881 268.07 306.917 268.07 306.917L108.514 296.796Z" fill="#FE7578"/>
<mask id="mask12_0_1001" style="mask-type:luminance" maskUnits="userSpaceOnUse" x="101" y="164" width="176" height="143">
<path fill-rule="evenodd" clip-rule="evenodd" d="M108.514 296.796C106.183 287.403 69.7934 164.13 191.783 164.505C313.773 164.881 268.07 306.917 268.07 306.917L108.514 296.796Z" fill="white"/>
</mask>
<g mask="url(#mask12_0_1001)">
<ellipse cx="189.43" cy="166.034" rx="31.3797" ry="22.9624" fill="#F0F3FC"/>
<ellipse cx="189.43" cy="166.034" rx="23.3958" ry="17.1202" fill="#FF9763"/>
<mask id="mask13_0_1001" style="mask-type:luminance" maskUnits="userSpaceOnUse" x="166" y="148" width="47" height="36">
<ellipse cx="189.43" cy="166.034" rx="23.3958" ry="17.1202" fill="white"/>
</mask>
<g mask="url(#mask13_0_1001)">
<ellipse cx="175.865" cy="164.999" rx="28.8478" ry="13.9909" fill="#E84B23"/>
</g>
<path d="M250.345 211.919C250.157 219.363 246.661 240.862 246.661 240.862L252.386 225.606L250.345 211.919Z" fill="#FE7578"/>
<path d="M89.0266 252.46C109.695 256.876 113.316 260.472 113.316 260.472L89.0266 252.46Z" fill="#FE7578"/>
<path d="M92.6527 256.162C100.806 255.427 108.855 258.417 114.552 264.296C114.552 264.296 97.7291 216.628 123.836 215.54C149.944 214.452 249.407 217.642 252.386 225.606C255.364 233.57 250.384 260.473 250.384 260.473C250.384 260.473 259.335 273.86 276.979 260.473C294.622 247.086 283.005 284.797 283.005 284.797L110.149 302.564" fill="#BA393C"/>
</g>
<path d="M188.771 181.221C188.155 196.726 160.196 202.244 154.214 168.548C154.214 168.548 171.284 159.12 171.566 163.779C172.465 178.646 188.771 181.221 188.771 181.221Z" fill="#F0F3FC"/>
<path d="M188.624 181.221C189.24 196.726 216.017 201.197 224.505 168.86C224.505 168.86 206.11 159.12 205.829 163.779C204.93 178.646 188.624 181.221 188.624 181.221Z" fill="#F0F3FC"/>
<path d="M247.653 318.196H121.095L113.384 233.57C112.685 225.903 117.459 219.577 124.058 219.577H244.691C251.29 219.577 256.063 225.903 255.364 233.57L247.653 318.196Z" fill="#F0F3FC"/>
<mask id="mask14_0_1001" style="mask-type:luminance" maskUnits="userSpaceOnUse" x="113" y="219" width="143" height="100">
<path fill-rule="evenodd" clip-rule="evenodd" d="M247.653 318.196H121.095L113.384 233.57C112.685 225.903 117.459 219.577 124.058 219.577H244.69C251.29 219.577 256.063 225.903 255.364 233.57L247.653 318.196Z" fill="white"/>
</mask>
<g mask="url(#mask14_0_1001)">
<path d="M98.5789 266.332C125.653 252.945 169.114 295.201 192.104 306.699C215.095 318.196 234.434 253.857 265.859 262.829C297.285 271.801 233.669 319.79 233.669 319.79L151.051 324.498" fill="#D6DCF2"/>
</g>
<path d="M193.478 263.734C193.107 267.405 189.396 270.128 185.164 270.052C180.932 269.975 177.328 267.121 177.099 263.439C176.851 259.465 180.574 256.077 185.432 256.164C190.29 256.252 193.878 259.772 193.478 263.734Z" fill="#FF9763"/>
<path d="M285.45 332.836L294.666 331.564C294.666 331.564 311.005 351.455 268.276 359.986L285.45 332.836Z" fill="#3A3530"/>
<path d="M273.08 330.363C279.167 329.694 285.303 329.599 291.407 330.081C303.356 331.967 292.113 355.374 268.276 359.986C268.276 359.986 284.092 339.028 273.08 330.363Z" fill="#F0F3FC"/>
<path d="M224.844 336.092C224.844 336.092 252.71 331.946 273.08 330.364C284.092 339.029 268.276 359.986 268.276 359.987C266.761 360.281 265.232 360.493 263.694 360.622C236.758 362.876 213.715 360.559 210.599 358.136C207.482 355.712 224.844 336.092 224.844 336.092Z" fill="#3A3530"/>
<path d="M206.724 321.838C220.821 330.843 230.024 337.094 230.024 337.094C234.172 341.803 234.3 348.822 230.327 353.679C227.983 356.861 224.168 358.617 220.226 358.326C214.43 357.932 208.617 357.389 202.819 356.707C204.912 347.111 207.624 332.067 206.724 321.838Z" fill="#FF9763"/>
<path d="M63.7456 260.944C77.443 242.627 164.277 294.722 206.724 321.838C207.625 332.067 204.913 347.111 202.819 356.706C115.293 346.412 31.3048 304.326 63.7456 260.944Z" fill="#274B69"/>
<mask id="mask15_0_1001" style="mask-type:luminance" maskUnits="userSpaceOnUse" x="56" y="257" width="151" height="100">
<path fill-rule="evenodd" clip-rule="evenodd" d="M63.7456 260.944C77.443 242.627 164.277 294.722 206.724 321.838C207.625 332.067 204.913 347.111 202.819 356.706C115.293 346.412 31.3048 304.326 63.7456 260.944Z" fill="white"/>
</mask>
<g mask="url(#mask15_0_1001)">
<path d="M67.9866 330.363C88.8418 323.349 95.4191 318.932 141.13 329.758C154.722 332.978 178.373 306.83 191.063 301.608C203.753 296.387 211.847 329.758 211.847 329.758L170.44 348.99L141.631 352.497L80.6896 344.872L67.9866 330.363Z" fill="#11314B"/>
<circle cx="60.3155" cy="266.332" r="18.8525" fill="#11314B"/>
<path d="M41.7163 263.383C26.7703 281.075 153.346 351.652 188.771 354.775" stroke="#11314B" stroke-width="1.28789" stroke-linecap="round" stroke-linejoin="round" stroke-dasharray="2.58"/>
</g>
<ellipse cx="188.771" cy="143.37" rx="23.0761" ry="32.3111" fill="#FF9763"/>
<mask id="mask16_0_1001" style="mask-type:luminance" maskUnits="userSpaceOnUse" x="165" y="111" width="47" height="65">
<ellipse cx="188.771" cy="143.37" rx="23.0761" ry="32.3111" fill="white"/>
</mask>
<g mask="url(#mask16_0_1001)">
<ellipse opacity="0.27" cx="174.921" cy="161.589" rx="5.87126" ry="4.47082" transform="rotate(-2.5189 174.921 161.589)" fill="#E84B23"/>
<ellipse opacity="0.27" cx="202.621" cy="160.371" rx="5.87126" ry="4.47082" transform="rotate(-2.5189 202.621 160.371)" fill="#E84B23"/>
<rect x="178.7" y="147.119" width="4.17474" height="7.70018" rx="2.08737" transform="rotate(1.59305 178.7 147.119)" fill="#190000"/>
<rect x="194.746" y="146.949" width="4.1748" height="7.70028" rx="2.0874" transform="rotate(1.5948 194.746 146.949)" fill="#190000"/>
<path d="M180.39 142.281C176.097 143.404 177.205 145.759 179.935 145.231C182.664 144.703 183.195 141.546 180.39 142.281Z" fill="#190000"/>
<path d="M196.848 141.922C201.072 143.283 200.162 145.402 197.466 144.724C194.771 144.045 194.089 141.033 196.848 141.922Z" fill="#190000"/>
<path d="M191.032 156.149C191.02 157.56 189.816 156.99 188.325 156.978C186.835 156.965 185.622 157.514 185.634 156.103C185.724 154.67 186.919 153.558 188.354 153.57C189.79 153.582 190.966 154.715 191.032 156.149Z" fill="#E84B23"/>
<path d="M182.536 164.008C185.08 174.038 194.38 169.182 194.148 162.863C194.131 162.536 193.911 162.255 193.598 162.16C190.069 161.245 186.333 161.57 183.016 163.08C182.647 163.227 182.443 163.623 182.536 164.008Z" fill="#C1525F"/>
<mask id="mask17_0_1001" style="mask-type:luminance" maskUnits="userSpaceOnUse" x="182" y="161" width="13" height="9">
<path fill-rule="evenodd" clip-rule="evenodd" d="M182.536 164.008C185.08 174.038 194.38 169.182 194.148 162.863C194.131 162.536 193.911 162.255 193.598 162.159C190.069 161.245 186.333 161.57 183.016 163.08C182.647 163.227 182.443 163.622 182.536 164.008Z" fill="white"/>
</mask>
<g mask="url(#mask17_0_1001)">
<ellipse cx="190.157" cy="169.14" rx="5.18734" ry="4.62991" transform="rotate(-22.8319 190.157 169.14)" fill="#993443"/>
<path d="M184.212 162.257C184.219 162.854 184.353 163.442 184.605 163.983C185.772 164.911 190.958 164.007 191.622 163.362C191.722 162.584 191.73 161.798 191.647 161.018L184.976 161.825" fill="#F0F3FC"/>
</g>
</g>
<path d="M167.378 139.695C154.061 133.487 151.152 143.407 157.275 151.549C161.867 157.656 166.976 156.851 169.244 156.067" fill="#FF9763"/>
<path d="M207.774 139.695C221.092 133.487 224 143.407 217.877 151.549C213.95 156.771 209.645 156.939 207.063 156.387" fill="#FF9763"/>
<path d="M181.997 124.383C178.553 150.365 163.168 146.368 163.168 146.368C163.168 146.368 154.214 107.95 187.278 108.394C220.341 108.838 211.846 143.37 211.846 143.37C211.846 143.37 185.671 143.925 181.997 124.383Z" fill="#3A3530"/>
<path d="M92.9741 332.836L83.7579 331.564C83.7579 331.564 67.4193 351.455 110.149 359.986L92.9741 332.836Z" fill="#3A3530"/>
<path d="M105.343 330.363C99.257 329.694 93.1211 329.599 87.0169 330.081C75.0679 331.967 86.3113 355.374 110.149 359.986C110.147 359.986 94.332 339.028 105.343 330.363Z" fill="#F0F3FC"/>
<path d="M153.58 336.092C153.58 336.092 125.714 331.946 105.343 330.364C94.332 339.029 110.148 359.986 110.148 359.987C111.663 360.281 113.192 360.493 114.73 360.622C141.666 362.876 164.709 360.559 167.825 358.136C170.942 355.712 153.58 336.092 153.58 336.092Z" fill="#3A3530"/>
<path d="M171.7 321.838C157.603 330.843 148.4 337.094 148.4 337.094C144.252 341.803 144.124 348.822 148.097 353.679C150.441 356.861 154.256 358.617 158.198 358.326C163.994 357.932 169.807 357.389 175.605 356.707C173.512 347.111 170.8 332.067 171.7 321.838Z" fill="#FF9763"/>
<mask id="mask18_0_1001" style="mask-type:luminance" maskUnits="userSpaceOnUse" x="145" y="321" width="31" height="38">
<path fill-rule="evenodd" clip-rule="evenodd" d="M171.7 321.838C157.603 330.843 148.4 337.094 148.4 337.094C144.252 341.803 144.124 348.822 148.097 353.679C150.441 356.861 154.256 358.617 158.198 358.326C163.994 357.932 169.807 357.389 175.605 356.707C173.512 347.111 170.8 332.067 171.7 321.838Z" fill="white"/>
</mask>
<g mask="url(#mask18_0_1001)">
<path d="M150.148 333.21C148.896 345.985 159.917 359.762 169.937 355.253C179.957 350.744 165.198 323.743 171.701 321.838C178.204 319.932 182.462 361.538 182.462 361.538C182.462 361.538 179.707 362.767 177.202 363.769C174.697 364.771 151.401 364.771 151.401 364.771L138.626 345.775L141.131 329.758L153.581 336.092" fill="#E84B23"/>
</g>
<path d="M314.679 260.944C300.982 242.627 214.148 294.722 171.7 321.838C170.8 332.067 173.512 347.111 175.605 356.706C263.131 346.412 347.119 304.326 314.679 260.944Z" fill="#274B69"/>
<mask id="mask19_0_1001" style="mask-type:luminance" maskUnits="userSpaceOnUse" x="171" y="257" width="151" height="100">
<path fill-rule="evenodd" clip-rule="evenodd" d="M314.679 260.944C300.982 242.627 214.148 294.722 171.7 321.838C170.8 332.067 173.512 347.111 175.605 356.706C263.131 346.412 347.119 304.326 314.679 260.944Z" fill="white"/>
</mask>
<g mask="url(#mask19_0_1001)">
<path d="M243.601 273.843C260.865 275.847 298.825 253.987 310.083 260.027C321.341 266.067 333.5 274.986 327.488 297.029C321.476 319.073 330.001 306.917 330.001 306.917L333.508 257.127L289.767 231.621L243.601 273.843Z" fill="#11314B"/>
<ellipse cx="325.312" cy="266.332" rx="21.0309" ry="22.9352" fill="#11314B"/>
<path d="M178.855 348.156C178.855 348.156 310.43 327.405 321.799 268.886" stroke="#11314B" stroke-width="1.28789" stroke-linecap="round" stroke-linejoin="round" stroke-dasharray="2.58"/>
<path d="M181.883 310.605C178.58 326.279 189.057 361.538 189.057 361.538L168.2 363.506L161.9 314.917" fill="#589BF7"/>
</g>
<circle cx="188.355" cy="195.865" r="2.03011" fill="#190000"/>
<circle cx="188.355" cy="207.621" r="2.03011" fill="#190000"/>
<path d="M193.304 116.211C193.209 118.158 193.689 120.09 194.684 121.766C194.954 122.224 195.544 122.377 196.004 122.109C196.463 121.84 196.619 121.251 196.353 120.79C196.24 120.6 196.133 120.407 196.034 120.21C195.988 120.118 195.943 120.025 195.9 119.932C195.876 119.878 195.852 119.824 195.828 119.77C195.868 119.866 195.867 119.861 195.824 119.757C195.673 119.373 195.547 118.98 195.447 118.581C195.397 118.381 195.355 118.179 195.32 117.976C195.313 117.938 195.262 117.575 195.289 117.796C195.279 117.709 195.269 117.621 195.261 117.533C195.22 117.094 195.212 116.652 195.237 116.211C195.233 115.678 194.802 115.247 194.27 115.244C193.741 115.255 193.315 115.682 193.303 116.211L193.304 116.211Z" fill="#190000"/>
<path d="M239.282 143.744C239.656 144.089 240.009 144.457 240.339 144.844C240.423 144.944 240.507 145.046 240.589 145.147C240.637 145.206 240.658 145.235 240.599 145.157C240.643 145.215 240.686 145.274 240.73 145.332C240.885 145.543 241.033 145.759 241.175 145.979C241.451 146.407 241.701 146.851 241.923 147.309C241.98 147.427 242.035 147.546 242.088 147.665C242.095 147.682 242.168 147.845 242.126 147.749C242.085 147.653 242.155 147.819 242.162 147.835C242.265 148.092 242.359 148.351 242.447 148.614C242.589 149.129 243.122 149.431 243.637 149.289C244.151 149.147 244.454 148.615 244.312 148.1C243.591 145.914 242.332 143.945 240.65 142.375C240.406 142.127 240.048 142.028 239.712 142.117C239.376 142.206 239.114 142.469 239.025 142.805C238.936 143.141 239.034 143.499 239.283 143.742L239.282 143.744Z" fill="#190000"/>
<path d="M139.549 253.144C142.8 256.391 146.511 259.142 150.563 261.307C151.66 261.893 152.638 260.225 151.539 259.638C147.631 257.555 144.051 254.906 140.916 251.777C140.535 251.421 139.941 251.431 139.572 251.8C139.203 252.169 139.193 252.763 139.549 253.144Z" fill="#D6DCF2"/>
<path d="M241.439 307.101L233.181 310.884C232.724 311.156 232.57 311.745 232.835 312.206C233.112 312.657 233.695 312.81 234.157 312.553L242.415 308.77C242.872 308.498 243.027 307.909 242.762 307.448C242.485 306.997 241.902 306.844 241.439 307.101Z" fill="#11314B"/>
<path d="M231.156 230.284C231.282 230.367 231.406 230.451 231.529 230.538C231.59 230.582 231.651 230.626 231.711 230.671C231.844 230.769 231.541 230.533 231.766 230.712C232.001 230.9 232.228 231.097 232.448 231.303C232.656 231.499 232.856 231.703 233.048 231.916C233.148 232.028 233.247 232.141 233.343 232.256C233.391 232.314 233.439 232.373 233.486 232.431C233.594 232.566 233.466 232.402 233.528 232.486C233.879 232.956 234.193 233.453 234.466 233.973C234.536 234.106 234.602 234.241 234.666 234.377C234.692 234.432 234.717 234.486 234.742 234.541C234.747 234.552 234.858 234.821 234.786 234.642C234.898 234.922 235 235.205 235.091 235.491C235.233 236.006 235.765 236.309 236.28 236.167C236.795 236.025 237.098 235.492 236.956 234.977C236.129 232.364 234.425 230.116 232.132 228.615C231.67 228.35 231.081 228.504 230.809 228.962C230.552 229.424 230.705 230.007 231.156 230.284H231.156Z" fill="#D6DCF2"/>
<path d="M105.755 281.943C104.37 283.642 103.582 285.748 103.511 287.939C103.515 288.471 103.945 288.901 104.477 288.905C105.007 288.895 105.433 288.468 105.444 287.939C105.451 287.702 105.465 287.466 105.491 287.231C105.497 287.172 105.504 287.113 105.512 287.055C105.497 287.165 105.498 287.163 105.515 287.048C105.537 286.932 105.555 286.815 105.578 286.699C105.666 286.264 105.786 285.837 105.938 285.42C105.978 285.309 106.021 285.198 106.066 285.089C105.99 285.275 106.131 284.946 106.146 284.914C106.234 284.726 106.328 284.542 106.429 284.361C106.544 284.155 106.667 283.953 106.799 283.757C106.865 283.658 106.932 283.561 107.002 283.466C107.037 283.418 107.072 283.371 107.108 283.324C107.048 283.402 107.052 283.398 107.122 283.31C107.486 282.928 107.486 282.326 107.122 281.943C106.742 281.572 106.134 281.572 105.754 281.943L105.755 281.943Z" fill="#11314B"/>
<path d="M242.26 190.184C245.058 191.849 247.058 194.581 247.799 197.751C248.082 198.962 249.947 198.449 249.664 197.237C248.788 193.581 246.469 190.434 243.236 188.514C242.777 188.266 242.204 188.426 241.941 188.877C241.677 189.328 241.819 189.906 242.261 190.184H242.26Z" fill="#BA393C"/>
<path d="M127.79 204.271L127.305 205.237C127.236 205.345 127.196 205.469 127.19 205.597C127.144 205.98 127.324 206.356 127.652 206.56L127.883 206.657C128.051 206.703 128.228 206.703 128.397 206.657L128.628 206.56C128.771 206.476 128.89 206.356 128.974 206.213L129.46 205.247C129.529 205.14 129.569 205.016 129.574 204.888C129.621 204.504 129.441 204.129 129.113 203.925L128.882 203.827C128.714 203.781 128.536 203.781 128.368 203.827L128.137 203.925C127.994 204.009 127.874 204.128 127.79 204.271Z" fill="#BA393C"/>
<path d="M344.339 28.7837L336.535 28.5626L335.837 28.5428C323.666 28.2071 311.729 25.1205 300.921 19.5144L300.826 19.4654L293.339 15.5891C294.313 12.8428 295.353 10.1212 296.457 7.42432C296.535 7.23566 296.611 7.04632 296.69 6.85866C298.449 2.70334 302.839 0.308396 307.285 1.07946C307.543 1.12426 307.8 1.17982 308.057 1.24612L320.616 4.49356L338.414 9.09558C343.073 10.2973 346.147 14.7335 345.635 19.5178C345.577 20.0572 345.505 20.5955 345.44 21.1341C345.129 23.6933 344.763 26.2432 344.339 28.7837Z" fill="#FF999A"/>
<path d="M329.544 72.9107C327.217 74.5466 324.29 75.078 321.537 74.3643L316.747 73.1259L304.847 70.049L294.291 67.3194L291.244 66.5318C286.577 65.3257 283.503 60.876 284.026 56.0839C284.12 55.2291 284.239 54.3765 284.346 53.5234C284.616 51.3611 284.926 49.2041 285.276 47.0523C285.944 42.9356 286.754 38.8449 287.707 34.7805C288.667 30.6835 289.769 26.6235 291.013 22.6005C291.74 20.2478 292.516 17.9108 293.339 15.5895L298.905 18.4715L300.921 19.5148C302.252 20.2037 303.598 20.8542 304.958 21.4663C312.687 24.9473 320.917 27.186 329.344 28.0998C331.561 28.3403 333.786 28.485 336.014 28.5482L344.34 28.7834C343.938 31.2144 343.488 33.6358 342.988 36.0475C342.134 40.1671 341.138 44.2525 339.998 48.3038C338.87 52.3172 337.602 56.2897 336.196 60.2212C335.353 62.5778 334.46 64.9174 333.518 67.2399C333.316 67.7372 333.12 68.237 332.912 68.7316C332.206 70.4145 331.038 71.8633 329.544 72.9107Z" fill="#FE7578"/>
<mask id="mask20_0_1001" style="mask-type:luminance" maskUnits="userSpaceOnUse" x="283" y="15" width="62" height="60">
<path fill-rule="evenodd" clip-rule="evenodd" d="M329.544 72.9107C327.217 74.5465 324.29 75.078 321.537 74.3642L316.747 73.1259L304.847 70.049L294.291 67.3193L291.244 66.5317C286.577 65.3256 283.503 60.8759 284.026 56.0838C284.12 55.229 284.239 54.3764 284.346 53.5233C284.616 51.361 284.926 49.204 285.276 47.0523C285.944 42.9355 286.754 38.8449 287.707 34.7804C288.667 30.6834 289.769 26.6234 291.013 22.6004C291.74 20.2477 292.516 17.9107 293.339 15.5894L298.905 18.4715L300.921 19.5147C302.252 20.2036 303.598 20.8541 304.958 21.4662C312.687 24.9472 320.917 27.1859 329.344 28.0997C331.561 28.3403 333.786 28.4849 336.014 28.5481L344.34 28.7833C343.938 31.2144 343.488 33.6358 342.988 36.0474C342.134 40.167 341.138 44.2525 339.998 48.3037C338.87 52.3171 337.602 56.2896 336.196 60.2211C335.353 62.5777 334.46 64.9173 333.518 67.2398C333.316 67.7371 333.12 68.2369 332.912 68.7315C332.206 70.4144 331.038 71.8633 329.544 72.9107Z" fill="white"/>
</mask>
<g mask="url(#mask20_0_1001)">
<path d="M282.417 61.9282C334.102 73.4475 334.021 60.9426 339.357 50.9027C344.694 40.8629 344.009 73.2131 344.009 73.2131C344.009 73.2131 330.984 83.5374 330.015 83.8128C329.046 84.0881 284.041 73.2524 284.041 73.2524L280.132 72.0596" fill="#E55A61"/>
<path d="M325.001 37.1455C322.104 38.8559 318.615 39.2504 315.408 38.2301C313.642 37.673 312.032 36.707 310.709 35.4106C307.68 32.4436 306.466 28.0838 307.528 23.9782C308.589 19.8727 311.764 16.6475 315.852 15.5211C321.579 13.9435 327.589 16.853 329.904 22.3238C332.218 27.7946 330.122 34.1337 325.001 37.1455H325.001Z" fill="#E55A61"/>
</g>
<path d="M324.27 34.6949C318.959 37.8159 312.14 36.33 308.609 31.2819C305.078 26.2337 306.02 19.3193 310.773 15.4001C315.527 11.4808 322.494 11.8734 326.777 16.3018C331.059 20.7302 331.219 27.7066 327.143 32.3261C326.316 33.2617 325.346 34.0611 324.27 34.6949Z" fill="#FFC562"/>
<path d="M322.51 31.7063C320.461 32.9157 317.994 33.1946 315.726 32.4733C312.899 31.5782 310.756 29.2535 310.093 26.3623C309.431 23.4712 310.347 20.4453 312.503 18.4081C313.502 17.4652 314.716 16.7811 316.04 16.4155C318.938 15.6211 322.039 16.438 324.169 18.5567C326.009 20.3861 326.896 22.9652 326.571 25.5393C326.246 28.1133 324.746 30.3912 322.51 31.7063Z" fill="#FF9763"/>
<path d="M331.474 14.6117C331.734 14.6699 331.981 14.7774 332.201 14.9284C332.306 14.9938 332.404 15.0703 332.493 15.1565C332.598 15.2535 332.696 15.3575 332.787 15.4678C332.831 15.5212 332.777 15.451 332.82 15.5125L332.874 15.5884C332.913 15.6444 332.949 15.7021 332.984 15.7613C333.021 15.8255 333.056 15.8911 333.089 15.958C333.115 16.0071 333.137 16.058 333.155 16.1103C333.254 16.3566 333.306 16.6189 333.311 16.8842C333.308 17.0156 333.376 17.1383 333.49 17.2048C333.603 17.2714 333.744 17.2714 333.857 17.2048C333.97 17.1383 334.039 17.0156 334.036 16.8842C333.984 15.4806 333.023 14.275 331.666 13.9125C331.54 13.8751 331.404 13.9087 331.31 14.0002C331.216 14.0918 331.178 14.227 331.212 14.3539C331.246 14.4807 331.346 14.5793 331.473 14.6117H331.474Z" fill="#FE7578"/>
<path d="M298.142 53.6559C299.321 55.7455 301.387 57.1846 303.756 57.5659C303.948 57.6123 304.143 57.5014 304.202 57.3126C304.254 57.1196 304.141 56.9208 303.949 56.8665C301.765 56.5321 299.855 55.2136 298.768 53.2898C298.54 52.8824 297.914 53.2476 298.142 53.6559Z" fill="#E55A61"/>
<ellipse cx="48.728" cy="259.562" rx="22.6341" ry="11.909" transform="rotate(-41.6109 48.728 259.562)" fill="#FFC562"/>
<mask id="mask21_0_1001" style="mask-type:luminance" maskUnits="userSpaceOnUse" x="30" y="242" width="38" height="36">
<ellipse cx="48.728" cy="259.562" rx="22.6341" ry="11.909" transform="rotate(-41.6109 48.728 259.562)" fill="white"/>
</mask>
<g mask="url(#mask21_0_1001)">
<path d="M47.7446 241.135C71.6969 241.924 67.9857 255.767 65.5595 261.627C63.1332 267.487 72.9918 251.427 72.9918 251.427L69.63 235.849L64.4309 234.829" fill="#D89D35"/>
</g>
<path d="M60.7216 246.734C65.7488 248.925 64.789 256.55 58.5784 263.764C52.3654 270.981 43.2541 275.054 38.2269 272.862C33.1997 270.67 34.1576 263.045 40.3706 255.828C46.5836 248.612 55.6934 244.542 60.7216 246.734Z" fill="#E84B23"/>
<mask id="mask22_0_1001" style="mask-type:luminance" maskUnits="userSpaceOnUse" x="35" y="246" width="29" height="28">
<path fill-rule="evenodd" clip-rule="evenodd" d="M60.7216 246.734C65.7488 248.925 64.789 256.55 58.5784 263.764C52.3654 270.981 43.2541 275.054 38.2269 272.862C33.1997 270.67 34.1576 263.045 40.3706 255.828C46.5836 248.612 55.6934 244.542 60.7216 246.734Z" fill="white"/>
</mask>
<g mask="url(#mask22_0_1001)">
<path d="M57.438 246.374C62.4651 248.565 61.5055 256.191 55.2947 263.405C49.0817 270.621 39.9704 274.694 34.9433 272.502C29.9163 270.311 30.8739 262.685 37.087 255.469C43.2976 248.255 52.4091 244.183 57.438 246.374Z" fill="#FF9763"/>
</g>
<path d="M24.9712 266.041C24.9955 266.115 25.0179 266.191 25.0443 266.264C25.0762 266.353 25.1126 266.438 25.1478 266.525C25.1761 266.595 25.2027 266.666 25.2333 266.735C25.2717 266.822 25.3149 266.906 25.3569 266.99C25.389 267.055 25.4189 267.121 25.453 267.185C25.5002 267.273 25.5523 267.357 25.6032 267.442C25.6368 267.499 25.6682 267.557 25.704 267.613C25.764 267.707 25.8292 267.796 25.8938 267.887C25.9251 267.93 25.9537 267.976 25.9861 268.019C26.0852 268.15 26.1896 268.278 26.2992 268.401L31.7947 274.589C31.685 274.465 31.5806 274.338 31.4815 274.206C31.4489 274.163 31.4202 274.117 31.3888 274.073C31.3243 273.983 31.2593 273.894 31.1996 273.8C31.164 273.745 31.1324 273.686 31.0988 273.629C31.0484 273.544 30.996 273.46 30.9491 273.372C30.9155 273.309 30.8856 273.243 30.8535 273.179C30.8115 273.094 30.768 273.009 30.7292 272.922C30.6988 272.854 30.6726 272.783 30.6452 272.713C30.6099 272.626 30.5733 272.54 30.5412 272.451C30.5149 272.378 30.4925 272.303 30.4683 272.228C30.4393 272.139 30.4092 272.051 30.3833 271.96C30.3613 271.883 30.343 271.803 30.3232 271.724C30.3001 271.633 30.2761 271.542 30.256 271.449C30.2392 271.368 30.2245 271.286 30.2094 271.204C30.1926 271.11 30.1736 271.016 30.159 270.92C30.1464 270.836 30.137 270.751 30.1264 270.666C30.1145 270.569 30.1021 270.473 30.0928 270.374C30.0849 270.287 30.0801 270.198 30.0742 270.11C30.0676 270.011 30.0607 269.912 30.0574 269.811C30.0542 269.721 30.0539 269.629 30.0529 269.538C30.0517 269.437 30.0503 269.335 30.0529 269.232C30.0544 269.139 30.0586 269.045 30.0624 268.951C30.0665 268.847 30.0707 268.743 30.0775 268.637C30.0839 268.542 30.0927 268.446 30.1012 268.35C30.1106 268.243 30.1202 268.137 30.1325 268.029C30.1434 267.931 30.157 267.833 30.1701 267.734C30.1849 267.625 30.1999 267.517 30.2172 267.407C30.2331 267.306 30.2508 267.205 30.2694 267.104C30.2891 266.994 30.3094 266.884 30.3317 266.773C30.3526 266.67 30.3752 266.567 30.3989 266.463C30.4226 266.359 30.4456 266.256 30.4708 266.152C30.5167 265.963 30.5671 265.772 30.6204 265.581C30.6387 265.515 30.6551 265.449 30.6743 265.383C30.7488 265.127 30.8296 264.868 30.9169 264.607C30.936 264.549 30.958 264.491 30.9779 264.434C31.0493 264.227 31.1237 264.02 31.2031 263.812C31.2367 263.723 31.2727 263.633 31.3081 263.543C31.3808 263.359 31.4567 263.175 31.5356 262.989C31.5764 262.893 31.6171 262.797 31.6594 262.701C31.7221 262.558 31.7878 262.415 31.854 262.273C31.9029 262.167 31.9511 262.062 32.0017 261.956C32.0729 261.808 32.1478 261.659 32.2227 261.51C32.2731 261.409 32.3235 261.307 32.3768 261.205C32.4596 261.045 32.547 260.884 32.6343 260.724C32.6847 260.632 32.7323 260.54 32.7837 260.448C32.8954 260.248 33.0125 260.046 33.1309 259.845C33.162 259.793 33.1908 259.74 33.2223 259.687C33.3753 259.431 33.534 259.173 33.6983 258.915C33.7431 258.845 33.7914 258.774 33.8372 258.703C33.9582 258.516 34.0798 258.329 34.2068 258.142C34.2722 258.045 34.3412 257.948 34.4084 257.851C34.5203 257.689 34.6324 257.527 34.7486 257.365C34.8242 257.259 34.9028 257.153 34.9803 257.047C35.0927 256.894 35.2057 256.74 35.322 256.587C35.3942 256.491 35.4685 256.395 35.5423 256.3C35.7079 256.085 35.8774 255.87 36.0506 255.656C36.1212 255.568 36.1909 255.481 36.2625 255.394C36.503 255.1 36.7483 254.807 37.0017 254.515C37.2794 254.195 37.5618 253.881 37.8487 253.572C37.9401 253.473 38.0335 253.377 38.1258 253.279C38.3233 253.069 38.5225 252.861 38.7232 252.656C38.8104 252.567 38.8986 252.479 38.9864 252.392C39.3856 251.992 39.7896 251.599 40.2011 251.218L40.276 251.151C40.6765 250.783 41.0823 250.424 41.4935 250.076C41.564 250.016 41.6343 249.954 41.7052 249.895C42.119 249.547 42.5369 249.209 42.9589 248.881C43.0429 248.816 43.128 248.751 43.2126 248.686C43.643 248.357 44.076 248.035 44.5121 247.727C44.5506 247.7 44.5894 247.674 44.628 247.647C45.0477 247.353 45.4696 247.07 45.8937 246.797C45.9636 246.752 46.0337 246.706 46.1037 246.661C46.5379 246.385 46.9731 246.12 47.4096 245.868C47.498 245.816 47.5863 245.766 47.6747 245.715C48.1157 245.463 48.557 245.221 48.9979 244.994C49.0466 244.969 49.0953 244.946 49.1439 244.921C49.5654 244.706 49.9861 244.503 50.4059 244.311C50.4764 244.279 50.5473 244.244 50.6179 244.213C50.951 244.064 51.2837 243.92 51.6148 243.785L51.6792 243.76C51.9889 243.635 52.2973 243.517 52.6042 243.406C52.7105 243.367 52.816 243.332 52.922 243.295C53.1455 243.216 53.3684 243.141 53.5902 243.07C53.7088 243.032 53.8269 242.996 53.9448 242.96C54.1591 242.895 54.3723 242.834 54.5844 242.776C54.7048 242.742 54.8255 242.709 54.9451 242.679C55.0739 242.645 55.2018 242.616 55.3298 242.586C55.4776 242.551 55.6253 242.516 55.772 242.485C55.8995 242.458 56.026 242.433 56.1525 242.408C56.2971 242.38 56.4413 242.353 56.5846 242.329C56.7106 242.308 56.8357 242.288 56.9606 242.27C57.102 242.249 57.2428 242.229 57.3828 242.212C57.506 242.197 57.6288 242.183 57.7513 242.17C57.8934 242.156 58.0346 242.143 58.175 242.133C58.2845 242.125 58.3933 242.118 58.5016 242.112C58.6446 242.104 58.7861 242.099 58.927 242.096C59.0329 242.093 59.1389 242.091 59.2435 242.091C59.3851 242.091 59.5248 242.094 59.6635 242.099C59.7643 242.102 59.8651 242.104 59.9636 242.109C60.1079 242.117 60.2492 242.13 60.3908 242.143C60.4813 242.151 60.5731 242.158 60.6625 242.168C60.7969 242.184 60.9284 242.205 61.0603 242.225C61.1582 242.24 61.2577 242.253 61.3541 242.27C61.4898 242.295 61.6217 242.326 61.7545 242.356C61.8427 242.376 61.9327 242.393 62.0194 242.415C62.1645 242.453 62.305 242.497 62.4463 242.541C62.5163 242.563 62.5887 242.581 62.658 242.604C62.8662 242.675 63.0696 242.753 63.2683 242.838C63.4269 242.906 63.5734 242.985 63.7219 243.061C63.8167 243.11 63.9151 243.155 64.0063 243.207C64.1359 243.281 64.2566 243.362 64.3788 243.442C64.4589 243.495 64.5433 243.543 64.6202 243.599C64.7499 243.693 64.8697 243.794 64.9898 243.895C65.0496 243.946 65.1143 243.991 65.1719 244.043C65.3445 244.198 65.5083 244.362 65.6625 244.536L60.167 238.348C60.0127 238.175 59.8489 238.01 59.6763 237.856C59.619 237.804 59.5547 237.758 59.495 237.708C59.3744 237.608 59.2543 237.505 59.1242 237.412C59.0473 237.357 58.9628 237.308 58.8827 237.255C58.7605 237.175 58.6397 237.093 58.5102 237.02C58.4193 236.968 58.3212 236.923 58.2266 236.874C58.1193 236.819 58.017 236.76 57.9049 236.709C57.8607 236.689 57.8164 236.67 57.7715 236.651C57.5732 236.565 57.3697 236.487 57.1612 236.417C57.0916 236.394 57.019 236.375 56.9485 236.353C56.8077 236.31 56.6676 236.265 56.5228 236.228C56.4359 236.206 56.3459 236.189 56.2577 236.169C56.1249 236.139 55.9929 236.108 55.8571 236.083C55.7611 236.066 55.6621 236.053 55.5645 236.038C55.4521 236.021 55.3417 236 55.2275 235.986L55.1655 235.981C55.0763 235.97 54.9849 235.964 54.8945 235.956C54.7527 235.943 54.6109 235.93 54.4664 235.922C54.368 235.917 54.2677 235.915 54.1681 235.912C54.0281 235.907 53.888 235.904 53.7457 235.904C53.6412 235.904 53.5356 235.906 53.4297 235.909C53.2891 235.912 53.1478 235.917 53.005 235.925C52.8961 235.93 52.7866 235.938 52.6767 235.946C52.606 235.951 52.5368 235.953 52.4656 235.96C52.3943 235.966 52.3243 235.976 52.2541 235.983C52.132 235.996 52.0093 236.01 51.8861 236.025C51.7457 236.041 51.6044 236.062 51.4624 236.083C51.3379 236.101 51.2131 236.121 51.0875 236.142C50.9442 236.166 50.7998 236.193 50.6552 236.221C50.5287 236.246 50.402 236.27 50.2745 236.298C50.128 236.329 49.9807 236.363 49.833 236.398C49.7048 236.429 49.5768 236.459 49.4478 236.492C49.3996 236.504 49.3522 236.514 49.3038 236.527C49.2321 236.546 49.1587 236.57 49.0866 236.589C48.8745 236.647 48.6617 236.708 48.4482 236.773C48.3306 236.809 48.213 236.845 48.0944 236.883C47.8726 236.954 47.6498 237.029 47.4262 237.107C47.3197 237.145 47.2137 237.18 47.107 237.219C46.8019 237.33 46.4956 237.448 46.1879 237.572L46.118 237.599C45.7867 237.734 45.4543 237.878 45.1208 238.027L45.0432 238.061C44.9991 238.081 44.9548 238.105 44.9108 238.125C44.4908 238.317 44.0697 238.52 43.6476 238.735C43.5989 238.76 43.5503 238.783 43.5018 238.808C43.0608 239.035 42.6194 239.278 42.1781 239.529C42.0899 239.58 42.0017 239.63 41.9135 239.681C41.4767 239.935 41.0413 240.199 40.6073 240.475C40.5372 240.519 40.4677 240.566 40.3976 240.611C39.9733 240.885 39.5506 241.168 39.1297 241.462C39.0921 241.489 39.0543 241.514 39.0167 241.54C38.5799 241.848 38.1471 242.17 37.7165 242.5C37.6325 242.565 37.5472 242.629 37.4625 242.695C37.0409 243.023 36.6232 243.361 36.2092 243.708C36.138 243.768 36.0676 243.83 35.9967 243.89C35.587 244.24 35.1816 244.598 34.7805 244.965L34.7046 245.034C34.2933 245.414 33.8898 245.807 33.4906 246.206C33.4465 246.251 33.3999 246.292 33.3562 246.336C33.3126 246.381 33.2704 246.427 33.2269 246.471C33.0263 246.675 32.8278 246.882 32.6313 247.092C32.5384 247.191 32.4445 247.288 32.3526 247.387C32.0663 247.697 31.7841 248.011 31.5059 248.33C31.2519 248.622 31.0068 248.915 30.7667 249.208C30.6946 249.296 30.6246 249.384 30.5537 249.472C30.3808 249.686 30.2116 249.901 30.046 250.115C30.0043 250.169 29.9593 250.223 29.9179 250.277C29.8862 250.319 29.857 250.36 29.8257 250.402C29.7098 250.555 29.5971 250.708 29.485 250.861C29.4069 250.968 29.3281 251.074 29.2518 251.18C29.1364 251.341 29.025 251.502 28.914 251.663C28.8468 251.761 28.7769 251.859 28.711 251.957C28.5855 252.142 28.4651 252.328 28.3455 252.513C28.2984 252.585 28.249 252.658 28.2027 252.731C28.039 252.989 27.8808 253.245 27.7279 253.501L27.7203 253.513C27.6884 253.567 27.6595 253.62 27.6281 253.673C27.5125 253.87 27.3981 254.066 27.2889 254.261C27.2367 254.355 27.1881 254.448 27.1377 254.541C27.0514 254.701 26.9647 254.86 26.8825 255.018C26.8291 255.121 26.7787 255.223 26.727 255.326C26.6525 255.474 26.5783 255.622 26.5075 255.769C26.4571 255.876 26.4079 255.982 26.3589 256.088C26.2928 256.23 26.2275 256.373 26.165 256.514C26.1465 256.556 26.1259 256.598 26.1077 256.64C26.084 256.695 26.0642 256.748 26.0405 256.803C25.9621 256.988 25.8863 257.173 25.8132 257.357C25.7778 257.447 25.742 257.537 25.708 257.626C25.6283 257.836 25.5528 258.044 25.4816 258.252C25.4623 258.308 25.4409 258.365 25.4221 258.421C25.3344 258.682 25.2534 258.941 25.179 259.198C25.1599 259.264 25.1437 259.329 25.1254 259.395C25.0722 259.587 25.0218 259.778 24.9757 259.967C24.9668 260.004 24.9554 260.042 24.9468 260.078C24.9309 260.145 24.9186 260.213 24.9037 260.28C24.8808 260.383 24.8581 260.486 24.8375 260.588C24.8149 260.7 24.7946 260.81 24.7748 260.92C24.7567 261.021 24.7387 261.123 24.7227 261.223C24.7059 261.332 24.6906 261.441 24.676 261.548C24.6626 261.648 24.6491 261.747 24.6379 261.845C24.6258 261.952 24.6164 262.058 24.607 262.164C24.5984 262.261 24.5902 262.358 24.5831 262.454C24.5762 262.559 24.5722 262.663 24.568 262.766C24.5641 262.861 24.5599 262.955 24.5584 263.048C24.5567 263.151 24.5584 263.252 24.5593 263.354C24.5603 263.445 24.5606 263.537 24.564 263.627C24.5677 263.728 24.5745 263.826 24.5808 263.925C24.5865 264.014 24.5913 264.103 24.5996 264.191C24.6085 264.288 24.6209 264.384 24.6332 264.48C24.6438 264.566 24.6532 264.652 24.6668 264.737C24.6812 264.832 24.6995 264.926 24.7172 265.02C24.7323 265.102 24.7462 265.184 24.7637 265.265C24.7839 265.358 24.8079 265.45 24.8309 265.541C24.8507 265.62 24.8689 265.699 24.8909 265.775C24.9127 265.864 24.9428 265.952 24.9712 266.041Z" fill="#FF9763"/>
<mask id="mask23_0_1001" style="mask-type:luminance" maskUnits="userSpaceOnUse" x="24" y="235" width="42" height="40">
<path fill-rule="evenodd" clip-rule="evenodd" d="M24.9712 266.041C24.9956 266.115 25.0179 266.191 25.0443 266.264C25.0762 266.352 25.1127 266.438 25.1478 266.525C25.1762 266.595 25.2027 266.666 25.2333 266.735C25.2718 266.822 25.3149 266.906 25.3569 266.99C25.389 267.055 25.4189 267.121 25.453 267.185C25.5002 267.273 25.5523 267.357 25.6032 267.442C25.6368 267.499 25.6682 267.557 25.704 267.613C25.764 267.707 25.8292 267.796 25.8939 267.887C25.9251 267.93 25.9537 267.976 25.9861 268.019C26.0852 268.15 26.1896 268.277 26.2992 268.401L31.7947 274.588C31.685 274.465 31.5807 274.338 31.4815 274.206C31.4489 274.163 31.4202 274.117 31.3888 274.073C31.3243 273.983 31.2593 273.893 31.1996 273.8C31.164 273.744 31.1324 273.686 31.0988 273.629C31.0484 273.544 30.996 273.46 30.9491 273.372C30.9155 273.309 30.8856 273.243 30.8536 273.179C30.8116 273.093 30.768 273.009 30.7292 272.922C30.6988 272.854 30.6726 272.783 30.6452 272.713C30.61 272.626 30.5733 272.54 30.5412 272.451C30.5149 272.378 30.4925 272.303 30.4683 272.228C30.4393 272.139 30.4092 272.051 30.3833 271.96C30.3613 271.883 30.343 271.803 30.3232 271.724C30.3002 271.633 30.2761 271.542 30.256 271.449C30.2392 271.368 30.2246 271.286 30.2094 271.204C30.1926 271.11 30.1737 271.016 30.159 270.92C30.1464 270.836 30.137 270.751 30.1265 270.666C30.1145 270.569 30.1021 270.473 30.0929 270.374C30.085 270.287 30.0801 270.198 30.0742 270.11C30.0677 270.011 30.0608 269.912 30.0574 269.811C30.0542 269.721 30.0539 269.629 30.0529 269.538C30.0517 269.437 30.0503 269.335 30.0529 269.232C30.0544 269.139 30.0586 269.045 30.0624 268.951C30.0665 268.847 30.0707 268.743 30.0776 268.637C30.0839 268.542 30.0927 268.446 30.1013 268.35C30.1107 268.243 30.1202 268.137 30.1325 268.029C30.1434 267.931 30.157 267.833 30.1701 267.734C30.1849 267.625 30.1999 267.517 30.2172 267.407C30.2331 267.306 30.2508 267.205 30.2694 267.104C30.2891 266.994 30.3094 266.884 30.3317 266.773C30.3526 266.67 30.3753 266.566 30.3989 266.463C30.4226 266.359 30.4457 266.256 30.4709 266.152C30.5167 265.963 30.5671 265.772 30.6204 265.581C30.6387 265.514 30.6551 265.449 30.6743 265.383C30.7488 265.126 30.8296 264.868 30.9169 264.607C30.936 264.549 30.9581 264.491 30.9779 264.434C31.0493 264.227 31.1237 264.02 31.2032 263.812C31.2368 263.723 31.2727 263.633 31.3082 263.543C31.3809 263.359 31.4567 263.174 31.5356 262.989C31.5765 262.893 31.6171 262.797 31.6595 262.7C31.7221 262.558 31.7878 262.415 31.854 262.273C31.9029 262.167 31.9511 262.062 32.0017 261.956C32.0729 261.808 32.1478 261.659 32.2228 261.51C32.2732 261.409 32.3236 261.307 32.3768 261.205C32.4596 261.045 32.547 260.884 32.6344 260.724C32.6848 260.632 32.7323 260.54 32.7837 260.448C32.8954 260.248 33.0125 260.046 33.131 259.845C33.162 259.793 33.1908 259.74 33.2224 259.687C33.3753 259.431 33.534 259.173 33.6983 258.915C33.7432 258.845 33.7914 258.774 33.8372 258.703C33.9582 258.516 34.0798 258.329 34.2068 258.141C34.2722 258.045 34.3412 257.948 34.4084 257.851C34.5203 257.689 34.6324 257.527 34.7486 257.365C34.8242 257.259 34.9029 257.153 34.9803 257.047C35.0927 256.894 35.2058 256.74 35.322 256.586C35.3943 256.491 35.4685 256.395 35.5423 256.3C35.7079 256.085 35.8774 255.87 36.0506 255.656C36.1212 255.568 36.1909 255.481 36.2625 255.394C36.5031 255.1 36.7483 254.807 37.0017 254.515C37.2794 254.195 37.5618 253.881 37.8487 253.572C37.9401 253.473 38.0335 253.377 38.1258 253.279C38.3233 253.069 38.5225 252.861 38.7232 252.656C38.8104 252.567 38.8986 252.479 38.9864 252.391C39.3856 251.992 39.7896 251.599 40.2011 251.218L40.276 251.151C40.6765 250.783 41.0823 250.424 41.4935 250.076C41.5641 250.016 41.6343 249.954 41.7052 249.895C42.119 249.547 42.5369 249.209 42.959 248.881C43.043 248.816 43.128 248.751 43.2126 248.686C43.6431 248.357 44.076 248.035 44.5121 247.727C44.5506 247.7 44.5894 247.674 44.628 247.647C45.0477 247.353 45.4696 247.07 45.8938 246.797C45.9636 246.752 46.0337 246.706 46.1038 246.661C46.5379 246.385 46.9732 246.12 47.4096 245.868C47.498 245.816 47.5864 245.766 47.6747 245.715C48.1157 245.463 48.5571 245.221 48.9979 244.994C49.0466 244.969 49.0953 244.946 49.1439 244.921C49.5655 244.706 49.9861 244.503 50.4059 244.311C50.4765 244.279 50.5474 244.244 50.6179 244.213C50.9511 244.064 51.2837 243.92 51.6148 243.785L51.6792 243.76C51.989 243.635 52.2973 243.517 52.6042 243.406C52.7105 243.367 52.816 243.332 52.922 243.295C53.1455 243.216 53.3684 243.141 53.5902 243.07C53.7088 243.032 53.8269 242.996 53.9448 242.96C54.1591 242.895 54.3723 242.834 54.5844 242.776C54.7049 242.742 54.8255 242.709 54.9451 242.679C55.0739 242.645 55.2018 242.616 55.3298 242.585C55.4777 242.551 55.6253 242.516 55.772 242.485C55.8995 242.458 56.026 242.433 56.1525 242.408C56.2972 242.38 56.4413 242.353 56.5846 242.329C56.7106 242.308 56.8358 242.288 56.9606 242.27C57.102 242.249 57.2428 242.229 57.3828 242.212C57.506 242.196 57.6288 242.183 57.7514 242.17C57.8934 242.156 58.0346 242.143 58.1751 242.133C58.2845 242.125 58.3933 242.118 58.5017 242.112C58.6446 242.104 58.7861 242.099 58.927 242.096C59.0329 242.093 59.1389 242.091 59.2435 242.091C59.3852 242.091 59.5248 242.094 59.6635 242.099C59.7643 242.102 59.8651 242.104 59.9636 242.109C60.1079 242.117 60.2492 242.13 60.3908 242.143C60.4814 242.151 60.5731 242.158 60.6625 242.168C60.7969 242.183 60.9284 242.205 61.0603 242.225C61.1582 242.24 61.2577 242.253 61.3541 242.27C61.4899 242.295 61.6217 242.326 61.7545 242.356C61.8427 242.376 61.9327 242.393 62.0194 242.415C62.1646 242.453 62.305 242.497 62.4463 242.541C62.5163 242.563 62.5888 242.581 62.658 242.604C62.8662 242.675 63.0696 242.753 63.2683 242.838C63.4269 242.906 63.5734 242.985 63.7219 243.061C63.8167 243.11 63.9151 243.155 64.0063 243.207C64.1359 243.281 64.2567 243.362 64.3788 243.442C64.4589 243.495 64.5433 243.543 64.6202 243.599C64.7499 243.692 64.8697 243.794 64.9898 243.895C65.0496 243.945 65.1143 243.991 65.1719 244.043C65.3445 244.198 65.5083 244.362 65.6625 244.536L60.167 238.348C60.0128 238.175 59.8489 238.01 59.6763 237.855C59.619 237.804 59.5547 237.758 59.495 237.708C59.3744 237.607 59.2543 237.505 59.1243 237.412C59.0473 237.357 58.9628 237.308 58.8827 237.255C58.7605 237.175 58.6397 237.093 58.5102 237.02C58.4193 236.968 58.3212 236.923 58.2266 236.874C58.1193 236.819 58.017 236.76 57.9049 236.709C57.8607 236.689 57.8164 236.67 57.7715 236.651C57.5732 236.565 57.3697 236.487 57.1612 236.417C57.0916 236.394 57.0191 236.375 56.9485 236.353C56.8077 236.31 56.6676 236.265 56.5228 236.228C56.4359 236.206 56.3459 236.189 56.2577 236.169C56.125 236.139 55.9929 236.108 55.8572 236.083C55.7611 236.066 55.6621 236.053 55.5645 236.038C55.4521 236.021 55.3417 236 55.2275 235.986L55.1655 235.981C55.0763 235.97 54.9849 235.964 54.8945 235.956C54.7527 235.943 54.6109 235.93 54.4665 235.922C54.368 235.917 54.2677 235.915 54.1681 235.912C54.0281 235.907 53.888 235.903 53.7457 235.904C53.6412 235.904 53.5356 235.906 53.4297 235.909C53.2891 235.912 53.1478 235.917 53.005 235.924C52.8962 235.93 52.7866 235.938 52.6768 235.946C52.606 235.951 52.5368 235.953 52.4656 235.96C52.3943 235.966 52.3243 235.976 52.2541 235.983C52.132 235.996 52.0093 236.009 51.8861 236.025C51.7457 236.041 51.6044 236.062 51.4625 236.083C51.338 236.101 51.2131 236.121 51.0875 236.142C50.9442 236.166 50.7999 236.193 50.6552 236.221C50.5287 236.246 50.402 236.27 50.2745 236.298C50.128 236.329 49.9807 236.363 49.833 236.398C49.7048 236.429 49.5768 236.459 49.4478 236.492C49.3996 236.504 49.3522 236.514 49.3038 236.527C49.2321 236.546 49.1587 236.57 49.0866 236.589C48.8745 236.647 48.6617 236.708 48.4482 236.773C48.3306 236.809 48.213 236.845 48.0944 236.883C47.8726 236.954 47.6499 237.029 47.4263 237.107C47.3197 237.145 47.2137 237.18 47.1071 237.219C46.802 237.33 46.4956 237.448 46.1879 237.572L46.118 237.599C45.7867 237.733 45.4543 237.878 45.1208 238.027L45.0432 238.061C44.9992 238.081 44.9548 238.105 44.9108 238.125C44.4908 238.317 44.0697 238.52 43.6476 238.735C43.5989 238.76 43.5503 238.783 43.5018 238.808C43.0608 239.035 42.6194 239.278 42.1781 239.529C42.0899 239.58 42.0017 239.63 41.9135 239.681C41.4767 239.935 41.0413 240.199 40.6073 240.475C40.5372 240.519 40.4677 240.566 40.3976 240.611C39.9733 240.885 39.5506 241.168 39.1297 241.462C39.0921 241.489 39.0543 241.514 39.0167 241.54C38.5799 241.848 38.1471 242.17 37.7165 242.5C37.6325 242.565 37.5472 242.629 37.4625 242.695C37.0409 243.023 36.6232 243.361 36.2092 243.708C36.138 243.768 36.0676 243.83 35.9967 243.89C35.587 244.239 35.1816 244.598 34.7806 244.965L34.7046 245.034C34.2934 245.414 33.8898 245.807 33.4907 246.206C33.4465 246.251 33.3999 246.292 33.3563 246.336C33.3126 246.381 33.2704 246.427 33.2269 246.471C33.0263 246.675 32.8278 246.882 32.6313 247.092C32.5384 247.191 32.4445 247.288 32.3526 247.387C32.0663 247.697 31.7841 248.011 31.5059 248.33C31.2519 248.622 31.0068 248.915 30.7667 249.208C30.6946 249.296 30.6246 249.384 30.5537 249.471C30.3809 249.686 30.2116 249.9 30.046 250.115C30.0043 250.169 29.9593 250.223 29.918 250.277C29.8862 250.319 29.857 250.36 29.8257 250.402C29.7098 250.555 29.5971 250.708 29.485 250.861C29.4069 250.968 29.3281 251.074 29.2518 251.18C29.1364 251.341 29.025 251.502 28.914 251.663C28.8468 251.761 28.7769 251.859 28.7111 251.957C28.5856 252.142 28.4651 252.327 28.3455 252.512C28.2984 252.585 28.2491 252.658 28.2027 252.731C28.0391 252.988 27.8808 253.245 27.7279 253.501L27.7204 253.513C27.6884 253.567 27.6595 253.62 27.6281 253.673C27.5125 253.87 27.3981 254.066 27.2889 254.261C27.2367 254.355 27.1881 254.448 27.1377 254.541C27.0514 254.7 26.9647 254.86 26.8825 255.018C26.8291 255.121 26.7787 255.223 26.727 255.326C26.6525 255.474 26.5783 255.622 26.5076 255.769C26.4572 255.876 26.4079 255.982 26.3589 256.088C26.2929 256.23 26.2275 256.373 26.165 256.514C26.1465 256.556 26.1259 256.598 26.1077 256.64C26.084 256.695 26.0642 256.748 26.0405 256.803C25.9621 256.988 25.8864 257.173 25.8132 257.357C25.7778 257.447 25.742 257.537 25.7081 257.626C25.6283 257.836 25.5528 258.044 25.4816 258.252C25.4623 258.308 25.4409 258.365 25.4221 258.421C25.3344 258.682 25.2534 258.941 25.179 259.198C25.1599 259.264 25.1437 259.329 25.1254 259.395C25.0722 259.587 25.0218 259.778 24.9757 259.967C24.9668 260.004 24.9554 260.042 24.9468 260.078C24.9309 260.145 24.9186 260.213 24.9037 260.28C24.8808 260.383 24.8581 260.486 24.8375 260.588C24.815 260.7 24.7946 260.81 24.7748 260.92C24.7567 261.021 24.7387 261.123 24.7227 261.223C24.7059 261.332 24.6906 261.441 24.676 261.548C24.6626 261.648 24.6491 261.747 24.6379 261.845C24.6258 261.952 24.6164 262.058 24.607 262.164C24.5984 262.261 24.5902 262.358 24.5831 262.454C24.5762 262.559 24.5722 262.663 24.568 262.766C24.5641 262.861 24.5599 262.955 24.5584 263.048C24.5567 263.151 24.5584 263.252 24.5593 263.354C24.5603 263.445 24.5606 263.537 24.564 263.627C24.5677 263.728 24.5746 263.826 24.5808 263.925C24.5865 264.014 24.5914 264.103 24.5996 264.191C24.6085 264.288 24.6209 264.384 24.6332 264.48C24.6438 264.566 24.6532 264.652 24.6668 264.737C24.6812 264.832 24.6995 264.926 24.7172 265.02C24.7323 265.102 24.7463 265.184 24.7637 265.265C24.7839 265.358 24.8079 265.45 24.8309 265.541C24.8507 265.619 24.8689 265.699 24.8909 265.775C24.9127 265.864 24.9428 265.952 24.9712 266.041Z" fill="white"/>
</mask>
<g mask="url(#mask23_0_1001)">
<path d="M48.0924 236.881C15.5086 248.715 32.1524 280.249 32.1524 280.249L20.7557 271.148L21.1394 245.276L38.1444 238.913" fill="#E84B23"/>
</g>
<path d="M58.7509 252.966L60.7888 254.002L51.8478 259.209L53.8017 260.205L51.6899 262.32L48.9868 260.947L47.7705 262.165L50.487 263.545L48.3736 265.66L45.6553 264.279L42.7221 267.217L40.8573 266.266L43.7922 263.33L41.074 261.949L43.1891 259.834L45.904 261.215L47.122 259.997L44.4054 258.616L46.5189 256.502L48.4777 257.497L52.4728 249.772L54.5745 250.841L50.6063 257.986L58.7509 252.966Z" fill="#E84B23"/>
<path d="M46.2721 254.671C45.2684 254.881 44.4355 255.578 44.0515 256.529C44.0066 256.693 44.103 256.863 44.2672 256.908C44.4308 256.948 44.5974 256.854 44.6468 256.693C44.6242 256.748 44.661 256.661 44.6623 256.659L44.6939 256.593C44.7177 256.545 44.7431 256.497 44.7698 256.451C44.8238 256.358 44.8829 256.268 44.9469 256.182C44.9133 256.228 44.9694 256.154 44.9709 256.152L45.0181 256.096C45.0533 256.055 45.0896 256.015 45.127 255.977C45.2019 255.899 45.2812 255.826 45.3645 255.758C45.3698 255.754 45.4289 255.708 45.4023 255.728C45.3758 255.748 45.4359 255.703 45.4418 255.699C45.4894 255.666 45.5383 255.632 45.5878 255.601C45.679 255.544 45.7734 255.492 45.8706 255.446L45.9378 255.415C45.9682 255.401 45.9067 255.426 45.9586 255.406C46.0105 255.386 46.0594 255.368 46.1098 255.352C46.2168 255.317 46.3259 255.289 46.4364 255.268C46.5997 255.221 46.6955 255.052 46.6519 254.888C46.6038 254.726 46.4362 254.63 46.2722 254.672L46.2721 254.671Z" fill="#E84B23"/>
<path d="M43.0801 242.629L42.5136 242.751C42.3938 242.784 42.3055 242.886 42.2894 243.009C42.2733 243.132 42.3326 243.253 42.4398 243.315C42.5126 243.355 42.5973 243.366 42.6777 243.346L43.2442 243.224C43.364 243.191 43.4523 243.09 43.4684 242.967C43.4845 242.843 43.4252 242.723 43.318 242.66C43.2452 242.621 43.1605 242.61 43.0801 242.629Z" fill="#E84B23"/>
<ellipse cx="348.323" cy="236.279" rx="19.2721" ry="36.6284" transform="rotate(-54.9858 348.323 236.279)" fill="#FFC562"/>
<mask id="mask24_0_1001" style="mask-type:luminance" maskUnits="userSpaceOnUse" x="316" y="209" width="65" height="54">
<ellipse cx="348.323" cy="236.279" rx="19.2721" ry="36.6284" transform="rotate(-54.9858 348.323 236.279)" fill="white"/>
</mask>
<g mask="url(#mask24_0_1001)">
<path d="M319.29 241.624C309.121 209.87 335.376 208.819 354.146 213.582C372.916 218.345 325.312 198.295 325.312 198.295L305.402 208.773" fill="#D89D35"/>
</g>
<path d="M323.637 222.197C325.205 213.462 337.569 212.119 351.251 219.197C364.939 226.277 374.761 239.097 373.193 247.832C371.625 256.57 359.261 257.914 345.573 250.833C331.89 243.756 322.069 230.935 323.637 222.197Z" fill="#FF9763"/>
<path d="M367.417 271.255C367.525 271.189 367.636 271.126 367.741 271.057C367.868 270.973 367.989 270.884 368.112 270.796C368.212 270.725 368.314 270.657 368.411 270.583C368.534 270.49 368.649 270.39 368.767 270.293C368.857 270.218 368.95 270.146 369.037 270.069C369.158 269.961 369.272 269.848 369.387 269.736C369.463 269.661 369.543 269.59 369.617 269.514C369.742 269.385 369.859 269.248 369.977 269.112C370.034 269.047 370.095 268.985 370.151 268.918C370.32 268.713 370.482 268.501 370.636 268.282L378.32 257.314C378.166 257.532 378.005 257.745 377.835 257.95C377.779 258.017 377.717 258.08 377.66 258.146C377.543 258.28 377.426 258.417 377.301 258.546C377.227 258.622 377.147 258.694 377.07 258.769C376.955 258.88 376.842 258.994 376.721 259.101C376.635 259.177 376.542 259.249 376.453 259.323C376.335 259.421 376.217 259.521 376.095 259.615C375.999 259.688 375.897 259.756 375.798 259.827C375.674 259.915 375.553 260.005 375.425 260.088C375.32 260.157 375.209 260.221 375.101 260.287C374.972 260.366 374.844 260.446 374.711 260.521C374.598 260.585 374.48 260.643 374.364 260.703C374.229 260.774 374.095 260.846 373.956 260.912C373.835 260.97 373.71 261.023 373.586 261.078C373.444 261.14 373.304 261.204 373.159 261.262C373.032 261.314 372.901 261.361 372.771 261.409C372.623 261.464 372.475 261.52 372.323 261.571C372.189 261.616 372.052 261.657 371.915 261.699C371.761 261.747 371.608 261.795 371.451 261.838C371.31 261.877 371.165 261.912 371.022 261.948C370.863 261.987 370.704 262.028 370.541 262.064C370.394 262.096 370.244 262.125 370.095 262.154C369.929 262.186 369.764 262.219 369.595 262.247C369.443 262.273 369.288 262.295 369.134 262.318C368.963 262.343 368.791 262.368 368.617 262.389C368.459 262.408 368.299 262.424 368.138 262.439C367.962 262.457 367.785 262.474 367.605 262.488C367.442 262.5 367.276 262.51 367.109 262.519C366.929 262.529 366.748 262.538 366.564 262.545C366.395 262.55 366.223 262.553 366.051 262.556C365.879 262.559 365.708 262.56 365.535 262.559C365.22 262.558 364.9 262.55 364.578 262.538C364.467 262.534 364.359 262.532 364.247 262.527C363.815 262.506 363.377 262.475 362.934 262.436C362.836 262.427 362.737 262.414 362.639 262.404C362.287 262.369 361.933 262.33 361.574 262.283C361.421 262.263 361.267 262.24 361.113 262.218C360.796 262.172 360.476 262.122 360.155 262.067C359.989 262.039 359.823 262.011 359.655 261.98C359.408 261.934 359.158 261.885 358.908 261.834C358.723 261.796 358.541 261.76 358.355 261.72C358.095 261.663 357.832 261.601 357.57 261.539C357.39 261.496 357.212 261.456 357.032 261.41C356.749 261.34 356.464 261.262 356.178 261.185C356.015 261.141 355.853 261.099 355.688 261.053C355.331 260.952 354.971 260.843 354.609 260.732C354.515 260.703 354.422 260.677 354.327 260.648C353.865 260.503 353.401 260.35 352.933 260.188C352.805 260.143 352.675 260.094 352.547 260.049C352.207 259.928 351.867 259.807 351.525 259.677C351.348 259.61 351.17 259.539 350.992 259.47C350.695 259.354 350.398 259.239 350.099 259.117C349.905 259.037 349.708 258.954 349.513 258.871C349.229 258.752 348.945 258.631 348.659 258.506C348.482 258.428 348.304 258.347 348.126 258.266C347.726 258.086 347.324 257.899 346.921 257.707C346.757 257.629 346.594 257.552 346.429 257.472C345.877 257.203 345.324 256.926 344.768 256.636C344.162 256.318 343.561 255.991 342.967 255.655C342.777 255.548 342.591 255.437 342.402 255.329C341.998 255.096 341.595 254.861 341.197 254.621C341.025 254.517 340.854 254.411 340.683 254.306C339.904 253.827 339.134 253.338 338.381 252.833C338.336 252.802 338.292 252.77 338.247 252.74C337.516 252.247 336.8 251.742 336.097 251.226C335.976 251.137 335.853 251.05 335.733 250.96C335.03 250.439 334.341 249.908 333.668 249.366C333.533 249.257 333.399 249.148 333.266 249.039C332.586 248.485 331.917 247.924 331.269 247.352C331.212 247.302 331.157 247.251 331.1 247.2C330.48 246.649 329.876 246.091 329.288 245.525C329.191 245.432 329.091 245.339 328.995 245.246C328.397 244.666 327.818 244.079 327.257 243.487C327.143 243.367 327.03 243.247 326.918 243.126C326.357 242.526 325.809 241.922 325.287 241.313C325.229 241.246 325.175 241.179 325.118 241.111C324.622 240.528 324.144 239.942 323.685 239.353C323.608 239.254 323.527 239.155 323.451 239.056C323.091 238.587 322.74 238.117 322.404 237.646C322.383 237.616 322.363 237.585 322.341 237.554C322.028 237.113 321.727 236.672 321.437 236.231C321.336 236.078 321.241 235.925 321.143 235.772C320.936 235.449 320.733 235.127 320.539 234.804C320.435 234.632 320.333 234.459 320.233 234.287C320.05 233.974 319.874 233.661 319.704 233.349C319.607 233.172 319.509 232.994 319.416 232.817C319.315 232.627 319.22 232.437 319.125 232.246C319.014 232.027 318.905 231.807 318.801 231.588C318.71 231.397 318.624 231.207 318.538 231.017C318.44 230.799 318.343 230.582 318.251 230.366C318.17 230.176 318.093 229.986 318.017 229.796C317.931 229.581 317.848 229.367 317.768 229.153C317.698 228.965 317.63 228.776 317.565 228.588C317.489 228.37 317.416 228.153 317.346 227.936C317.293 227.766 317.241 227.598 317.191 227.429C317.125 227.207 317.065 226.986 317.006 226.765C316.962 226.599 316.919 226.434 316.879 226.269C316.826 226.046 316.78 225.825 316.734 225.604C316.702 225.445 316.667 225.285 316.639 225.127C316.597 224.897 316.565 224.67 316.532 224.442C316.511 224.297 316.487 224.15 316.469 224.005C316.443 223.787 316.428 223.573 316.411 223.358C316.397 223.198 316.38 223.037 316.372 222.878C316.36 222.655 316.36 222.436 316.357 222.216C316.356 222.069 316.349 221.921 316.351 221.776C316.355 221.534 316.373 221.296 316.389 221.057C316.397 220.939 316.399 220.818 316.41 220.7C316.443 220.346 316.488 219.996 316.548 219.652C316.596 219.377 316.666 219.117 316.73 218.853C316.771 218.685 316.806 218.513 316.854 218.351C316.921 218.119 317.005 217.898 317.085 217.676C317.138 217.53 317.183 217.379 317.241 217.237C317.34 216.998 317.454 216.771 317.568 216.544C317.625 216.431 317.673 216.312 317.733 216.202C317.912 215.872 318.11 215.552 318.325 215.244L310.641 226.212C310.426 226.52 310.228 226.84 310.049 227.17C309.989 227.279 309.941 227.398 309.885 227.51C309.771 227.738 309.656 227.965 309.557 228.205C309.499 228.347 309.453 228.498 309.401 228.644C309.32 228.866 309.237 229.087 309.169 229.319C309.122 229.481 309.087 229.652 309.047 229.819C309 230.009 308.946 230.192 308.907 230.388C308.892 230.464 308.878 230.542 308.864 230.62C308.804 230.964 308.758 231.314 308.726 231.668C308.714 231.786 308.713 231.907 308.705 232.027C308.688 232.264 308.671 232.502 308.667 232.744C308.665 232.889 308.672 233.037 308.673 233.183C308.676 233.403 308.676 233.623 308.688 233.846C308.696 234.004 308.713 234.165 308.727 234.324C308.741 234.507 308.75 234.688 308.771 234.873C308.775 234.907 308.781 234.941 308.785 234.973C308.802 235.117 308.827 235.264 308.848 235.41C308.881 235.638 308.914 235.866 308.955 236.097C308.983 236.254 309.018 236.412 309.05 236.57C309.095 236.792 309.142 237.014 309.196 237.238C309.235 237.403 309.278 237.568 309.322 237.734C309.38 237.954 309.44 238.175 309.506 238.397C309.556 238.566 309.608 238.735 309.662 238.905C309.697 239.015 309.726 239.124 309.763 239.233C309.8 239.342 309.842 239.449 309.88 239.557C309.945 239.745 310.012 239.933 310.082 240.121C310.162 240.335 310.246 240.55 310.332 240.766C310.408 240.955 310.485 241.144 310.566 241.334C310.658 241.551 310.754 241.768 310.852 241.985C310.938 242.175 311.025 242.365 311.115 242.556C311.219 242.775 311.329 242.994 311.439 243.213C311.534 243.404 311.63 243.594 311.73 243.785C311.767 243.856 311.801 243.927 311.839 243.998C311.895 244.104 311.961 244.211 312.018 244.317C312.189 244.63 312.365 244.942 312.547 245.255C312.648 245.427 312.75 245.599 312.852 245.771C313.047 246.093 313.25 246.416 313.456 246.739C313.555 246.892 313.65 247.046 313.752 247.2C314.04 247.638 314.34 248.077 314.651 248.515C314.674 248.549 314.696 248.582 314.719 248.615C315.055 249.085 315.406 249.556 315.767 250.025C315.795 250.061 315.82 250.098 315.848 250.134C315.896 250.196 315.95 250.257 315.998 250.319C316.458 250.909 316.936 251.495 317.432 252.08C317.489 252.147 317.544 252.214 317.601 252.281C318.125 252.89 318.671 253.494 319.233 254.096C319.345 254.216 319.457 254.336 319.571 254.455C320.134 255.047 320.713 255.634 321.31 256.215C321.406 256.308 321.505 256.4 321.602 256.494C322.192 257.059 322.797 257.618 323.417 258.171C323.472 258.221 323.526 258.271 323.582 258.32C324.23 258.892 324.899 259.453 325.579 260.008C325.714 260.117 325.847 260.226 325.982 260.335C326.656 260.876 327.344 261.407 328.046 261.929C328.167 262.018 328.291 262.106 328.412 262.195C329.116 262.71 329.831 263.214 330.559 263.707C330.605 263.738 330.65 263.77 330.696 263.801C331.449 264.306 332.218 264.794 332.996 265.273C333.082 265.326 333.165 265.384 333.252 265.437C333.339 265.49 333.426 265.538 333.512 265.59C333.909 265.829 334.31 266.063 334.714 266.296C334.903 266.405 335.091 266.516 335.282 266.624C335.877 266.959 336.477 267.285 337.083 267.604C337.638 267.895 338.191 268.171 338.743 268.44C338.908 268.52 339.072 268.598 339.237 268.677C339.639 268.868 340.04 269.055 340.44 269.235C340.541 269.281 340.643 269.331 340.744 269.376C340.821 269.409 340.897 269.441 340.974 269.474C341.258 269.6 341.542 269.72 341.825 269.839C342.022 269.922 342.219 270.007 342.415 270.086C342.712 270.208 343.007 270.323 343.302 270.438C343.481 270.507 343.661 270.58 343.84 270.647C344.178 270.775 344.515 270.895 344.851 271.015C344.983 271.062 345.117 271.112 345.248 271.158C345.715 271.319 346.178 271.472 346.639 271.617L346.661 271.624C346.757 271.654 346.851 271.68 346.946 271.709C347.299 271.818 347.652 271.924 348 272.023C348.168 272.07 348.332 272.112 348.498 272.157C348.781 272.234 349.064 272.311 349.344 272.381C349.527 272.426 349.707 272.467 349.888 272.51C350.149 272.572 350.409 272.634 350.668 272.69C350.855 272.73 351.039 272.767 351.224 272.805C351.474 272.855 351.722 272.906 351.969 272.95C352.041 272.964 352.116 272.98 352.188 272.993C352.283 273.01 352.375 273.021 352.469 273.038C352.791 273.092 353.11 273.142 353.427 273.188C353.582 273.21 353.736 273.233 353.889 273.253C354.25 273.3 354.606 273.341 354.959 273.375C355.055 273.385 355.152 273.397 355.247 273.406C355.692 273.446 356.13 273.476 356.563 273.497C356.674 273.503 356.782 273.504 356.893 273.508C357.215 273.52 357.534 273.528 357.85 273.529C357.911 273.529 357.975 273.533 358.036 273.533C358.148 273.533 358.257 273.528 358.369 273.526C358.539 273.524 358.71 273.521 358.879 273.515C359.064 273.509 359.244 273.499 359.425 273.489C359.592 273.48 359.758 273.47 359.922 273.458C360.101 273.444 360.277 273.427 360.452 273.409C360.614 273.393 360.775 273.377 360.934 273.358C361.107 273.337 361.277 273.313 361.447 273.288C361.603 273.265 361.759 273.243 361.913 273.217C362.081 273.188 362.245 273.156 362.409 273.124C362.56 273.094 362.71 273.066 362.857 273.033C363.02 272.997 363.179 272.957 363.338 272.918C363.481 272.882 363.626 272.847 363.767 272.808C363.923 272.764 364.076 272.717 364.229 272.67C364.367 272.627 364.505 272.586 364.64 272.541C364.791 272.49 364.937 272.434 365.084 272.38C365.215 272.331 365.347 272.284 365.475 272.232C365.62 272.173 365.761 272.109 365.902 272.047C366.025 271.993 366.15 271.94 366.271 271.882C366.41 271.815 366.545 271.743 366.68 271.673C366.796 271.612 366.914 271.554 367.026 271.491C367.16 271.414 367.288 271.334 367.417 271.255Z" fill="#FF9763"/>
<mask id="mask25_0_1001" style="mask-type:luminance" maskUnits="userSpaceOnUse" x="308" y="215" width="71" height="59">
<path fill-rule="evenodd" clip-rule="evenodd" d="M367.417 271.255C367.525 271.189 367.636 271.126 367.741 271.057C367.868 270.973 367.989 270.884 368.112 270.796C368.212 270.725 368.314 270.657 368.411 270.583C368.534 270.49 368.649 270.39 368.767 270.293C368.857 270.218 368.95 270.146 369.037 270.069C369.158 269.961 369.272 269.848 369.387 269.736C369.463 269.661 369.543 269.59 369.617 269.514C369.742 269.385 369.859 269.248 369.977 269.112C370.034 269.047 370.095 268.985 370.151 268.918C370.32 268.713 370.482 268.501 370.636 268.282L378.32 257.314C378.166 257.532 378.005 257.745 377.835 257.95C377.779 258.017 377.717 258.08 377.66 258.146C377.543 258.28 377.426 258.417 377.301 258.546C377.227 258.622 377.147 258.694 377.07 258.769C376.955 258.88 376.842 258.994 376.721 259.101C376.635 259.177 376.542 259.249 376.453 259.323C376.335 259.421 376.217 259.521 376.095 259.615C375.999 259.688 375.897 259.756 375.798 259.827C375.674 259.915 375.553 260.005 375.425 260.088C375.32 260.157 375.209 260.221 375.101 260.287C374.972 260.366 374.844 260.446 374.711 260.521C374.598 260.585 374.48 260.643 374.364 260.703C374.229 260.774 374.095 260.846 373.956 260.912C373.835 260.97 373.71 261.023 373.586 261.078C373.444 261.14 373.304 261.204 373.159 261.262C373.032 261.314 372.901 261.361 372.771 261.409C372.623 261.464 372.475 261.52 372.323 261.571C372.189 261.616 372.052 261.657 371.915 261.699C371.761 261.747 371.608 261.795 371.451 261.838C371.31 261.877 371.165 261.912 371.022 261.948C370.863 261.987 370.704 262.028 370.541 262.064C370.394 262.096 370.244 262.125 370.095 262.154C369.929 262.186 369.764 262.219 369.595 262.247C369.443 262.273 369.288 262.295 369.134 262.318C368.963 262.343 368.791 262.368 368.617 262.389C368.459 262.408 368.299 262.424 368.138 262.439C367.962 262.457 367.785 262.474 367.605 262.488C367.442 262.5 367.276 262.51 367.109 262.519C366.929 262.529 366.748 262.538 366.564 262.545C366.395 262.55 366.223 262.553 366.051 262.556C365.879 262.559 365.708 262.56 365.535 262.559C365.22 262.558 364.9 262.55 364.578 262.538C364.467 262.534 364.359 262.532 364.247 262.527C363.815 262.506 363.377 262.475 362.934 262.436C362.836 262.427 362.737 262.414 362.639 262.404C362.287 262.369 361.933 262.33 361.574 262.283C361.421 262.263 361.267 262.24 361.113 262.218C360.796 262.172 360.476 262.122 360.155 262.067C359.989 262.039 359.823 262.011 359.655 261.98C359.408 261.934 359.158 261.885 358.908 261.834C358.723 261.796 358.541 261.76 358.355 261.72C358.095 261.663 357.832 261.601 357.57 261.539C357.39 261.496 357.212 261.456 357.032 261.41C356.749 261.34 356.464 261.262 356.178 261.185C356.015 261.141 355.853 261.099 355.688 261.053C355.331 260.952 354.971 260.843 354.609 260.732C354.515 260.703 354.422 260.677 354.327 260.648C353.865 260.503 353.401 260.35 352.933 260.188C352.805 260.143 352.675 260.094 352.547 260.049C352.207 259.928 351.867 259.807 351.525 259.677C351.348 259.61 351.17 259.539 350.992 259.47C350.695 259.354 350.398 259.239 350.099 259.117C349.905 259.037 349.708 258.954 349.513 258.871C349.229 258.752 348.945 258.631 348.659 258.506C348.482 258.428 348.304 258.347 348.126 258.266C347.726 258.086 347.324 257.899 346.921 257.707C346.757 257.629 346.594 257.552 346.429 257.472C345.877 257.203 345.324 256.926 344.768 256.636C344.162 256.318 343.561 255.991 342.967 255.655C342.777 255.548 342.591 255.437 342.402 255.329C341.998 255.096 341.595 254.861 341.197 254.621C341.025 254.517 340.854 254.411 340.683 254.306C339.904 253.827 339.134 253.338 338.381 252.833C338.336 252.802 338.292 252.77 338.247 252.74C337.516 252.247 336.8 251.742 336.097 251.226C335.976 251.137 335.853 251.05 335.733 250.96C335.03 250.439 334.341 249.908 333.668 249.366C333.533 249.257 333.399 249.148 333.266 249.039C332.586 248.485 331.917 247.924 331.269 247.352C331.212 247.302 331.157 247.251 331.1 247.2C330.48 246.649 329.876 246.091 329.288 245.525C329.191 245.432 329.091 245.339 328.995 245.246C328.397 244.666 327.818 244.079 327.257 243.487C327.143 243.367 327.03 243.247 326.918 243.126C326.357 242.526 325.809 241.922 325.287 241.313C325.229 241.246 325.175 241.179 325.118 241.111C324.622 240.528 324.144 239.942 323.685 239.353C323.608 239.254 323.527 239.155 323.451 239.056C323.091 238.587 322.74 238.117 322.404 237.646C322.383 237.616 322.363 237.585 322.341 237.554C322.028 237.113 321.727 236.672 321.437 236.231C321.336 236.078 321.241 235.925 321.143 235.772C320.936 235.449 320.733 235.127 320.539 234.804C320.435 234.632 320.333 234.459 320.233 234.287C320.05 233.974 319.874 233.661 319.704 233.349C319.607 233.172 319.509 232.994 319.416 232.817C319.315 232.627 319.22 232.437 319.125 232.246C319.014 232.027 318.905 231.807 318.801 231.588C318.71 231.397 318.624 231.207 318.538 231.017C318.44 230.799 318.343 230.582 318.251 230.366C318.17 230.176 318.093 229.986 318.017 229.796C317.931 229.581 317.848 229.367 317.768 229.153C317.698 228.965 317.63 228.776 317.565 228.588C317.489 228.37 317.416 228.153 317.346 227.936C317.293 227.766 317.241 227.598 317.191 227.429C317.125 227.207 317.065 226.986 317.006 226.765C316.962 226.599 316.919 226.434 316.879 226.269C316.826 226.046 316.78 225.825 316.734 225.604C316.702 225.445 316.667 225.285 316.639 225.127C316.597 224.897 316.565 224.67 316.532 224.442C316.511 224.297 316.487 224.15 316.469 224.005C316.443 223.787 316.428 223.573 316.411 223.358C316.397 223.198 316.38 223.037 316.372 222.878C316.36 222.655 316.36 222.436 316.357 222.216C316.356 222.069 316.349 221.921 316.351 221.776C316.355 221.534 316.373 221.296 316.389 221.057C316.397 220.939 316.399 220.818 316.41 220.7C316.443 220.346 316.488 219.996 316.548 219.652C316.596 219.377 316.666 219.117 316.73 218.853C316.771 218.685 316.806 218.513 316.854 218.351C316.921 218.119 317.005 217.898 317.085 217.676C317.138 217.53 317.183 217.379 317.241 217.237C317.34 216.998 317.454 216.771 317.568 216.544C317.625 216.431 317.673 216.312 317.733 216.202C317.912 215.872 318.11 215.552 318.325 215.244L310.641 226.212C310.426 226.52 310.228 226.84 310.049 227.17C309.989 227.279 309.941 227.398 309.885 227.51C309.771 227.738 309.656 227.965 309.557 228.205C309.499 228.347 309.453 228.498 309.401 228.644C309.32 228.866 309.237 229.087 309.169 229.319C309.122 229.481 309.087 229.652 309.047 229.819C309 230.009 308.946 230.192 308.907 230.388C308.892 230.464 308.878 230.542 308.864 230.62C308.804 230.964 308.758 231.314 308.726 231.668C308.714 231.786 308.713 231.907 308.705 232.027C308.688 232.264 308.671 232.502 308.667 232.744C308.665 232.889 308.672 233.037 308.673 233.183C308.676 233.403 308.676 233.623 308.688 233.846C308.696 234.004 308.713 234.165 308.727 234.324C308.741 234.507 308.75 234.688 308.771 234.873C308.775 234.907 308.781 234.941 308.785 234.973C308.802 235.117 308.827 235.264 308.848 235.41C308.881 235.638 308.914 235.866 308.955 236.097C308.983 236.254 309.018 236.412 309.05 236.57C309.095 236.792 309.142 237.014 309.196 237.238C309.235 237.403 309.278 237.568 309.322 237.734C309.38 237.954 309.44 238.175 309.506 238.397C309.556 238.566 309.608 238.735 309.662 238.905C309.697 239.015 309.726 239.124 309.763 239.233C309.8 239.342 309.842 239.449 309.88 239.557C309.945 239.745 310.012 239.933 310.082 240.121C310.162 240.335 310.246 240.55 310.332 240.766C310.408 240.955 310.485 241.144 310.566 241.334C310.658 241.551 310.754 241.768 310.852 241.985C310.938 242.175 311.025 242.365 311.115 242.556C311.219 242.775 311.329 242.994 311.439 243.213C311.534 243.404 311.63 243.594 311.73 243.785C311.767 243.856 311.801 243.927 311.839 243.998C311.895 244.104 311.961 244.211 312.018 244.317C312.189 244.63 312.365 244.942 312.547 245.255C312.648 245.427 312.75 245.599 312.852 245.771C313.047 246.093 313.25 246.416 313.456 246.739C313.555 246.892 313.65 247.046 313.752 247.2C314.04 247.638 314.34 248.077 314.651 248.515C314.674 248.549 314.696 248.582 314.719 248.615C315.055 249.085 315.406 249.556 315.767 250.025C315.795 250.061 315.82 250.098 315.848 250.134C315.896 250.196 315.95 250.257 315.998 250.319C316.458 250.909 316.936 251.495 317.432 252.08C317.489 252.147 317.544 252.214 317.601 252.281C318.125 252.89 318.671 253.494 319.233 254.096C319.345 254.216 319.457 254.336 319.571 254.455C320.134 255.047 320.713 255.634 321.31 256.215C321.406 256.308 321.505 256.4 321.602 256.494C322.192 257.059 322.797 257.618 323.417 258.171C323.472 258.221 323.526 258.271 323.582 258.32C324.23 258.892 324.899 259.453 325.579 260.008C325.714 260.117 325.847 260.226 325.982 260.335C326.656 260.876 327.344 261.407 328.046 261.929C328.167 262.018 328.291 262.106 328.412 262.195C329.116 262.71 329.831 263.214 330.559 263.707C330.605 263.738 330.65 263.77 330.696 263.801C331.449 264.306 332.218 264.794 332.996 265.273C333.082 265.326 333.165 265.384 333.252 265.437C333.339 265.49 333.426 265.538 333.512 265.59C333.909 265.829 334.31 266.063 334.714 266.296C334.903 266.405 335.091 266.516 335.282 266.624C335.877 266.959 336.477 267.285 337.083 267.604C337.638 267.895 338.191 268.171 338.743 268.44C338.908 268.52 339.072 268.598 339.237 268.677C339.639 268.868 340.04 269.055 340.44 269.235C340.541 269.281 340.643 269.331 340.744 269.376C340.821 269.409 340.897 269.441 340.974 269.474C341.258 269.6 341.542 269.72 341.825 269.839C342.022 269.922 342.219 270.007 342.415 270.086C342.712 270.208 343.007 270.323 343.302 270.438C343.481 270.507 343.661 270.58 343.84 270.647C344.178 270.775 344.515 270.895 344.851 271.015C344.983 271.062 345.117 271.112 345.248 271.158C345.715 271.319 346.178 271.472 346.639 271.617L346.661 271.624C346.757 271.654 346.851 271.68 346.946 271.709C347.299 271.818 347.652 271.924 348 272.023C348.168 272.07 348.332 272.112 348.498 272.157C348.781 272.234 349.064 272.311 349.344 272.381C349.527 272.426 349.707 272.467 349.888 272.51C350.149 272.572 350.409 272.634 350.668 272.69C350.855 272.73 351.039 272.767 351.224 272.805C351.474 272.855 351.722 272.906 351.969 272.95C352.041 272.964 352.116 272.98 352.188 272.993C352.283 273.01 352.375 273.021 352.469 273.038C352.791 273.092 353.11 273.142 353.427 273.188C353.582 273.21 353.736 273.233 353.889 273.253C354.25 273.3 354.606 273.341 354.959 273.375C355.055 273.385 355.152 273.397 355.247 273.406C355.692 273.446 356.13 273.476 356.563 273.497C356.674 273.503 356.782 273.504 356.893 273.508C357.215 273.52 357.534 273.528 357.85 273.529C357.911 273.529 357.975 273.533 358.036 273.533C358.148 273.533 358.257 273.528 358.369 273.526C358.539 273.524 358.71 273.521 358.879 273.515C359.064 273.509 359.244 273.499 359.425 273.489C359.592 273.48 359.758 273.47 359.922 273.458C360.101 273.444 360.277 273.427 360.452 273.409C360.614 273.393 360.775 273.377 360.934 273.358C361.107 273.337 361.277 273.313 361.447 273.288C361.603 273.265 361.759 273.243 361.913 273.217C362.081 273.188 362.245 273.156 362.409 273.124C362.56 273.094 362.71 273.066 362.857 273.033C363.02 272.997 363.179 272.957 363.338 272.918C363.481 272.882 363.626 272.847 363.767 272.808C363.923 272.764 364.076 272.717 364.229 272.67C364.367 272.627 364.505 272.586 364.64 272.541C364.791 272.49 364.937 272.434 365.084 272.38C365.215 272.331 365.347 272.284 365.475 272.232C365.62 272.173 365.761 272.109 365.902 272.047C366.025 271.993 366.15 271.94 366.271 271.882C366.41 271.815 366.545 271.743 366.68 271.673C366.796 271.612 366.914 271.554 367.026 271.491C367.16 271.414 367.288 271.334 367.417 271.255Z" fill="white"/>
</mask>
<g mask="url(#mask25_0_1001)">
<path d="M382.004 260.596C364.784 276.509 330.697 263.8 330.697 263.8L336.765 284.05C336.765 284.05 362.725 287.845 371.77 279.947L380.815 272.05" fill="#E84B23"/>
</g>
<path d="M353.516 228.636C354.969 231.303 356.109 234.13 356.912 237.059C357.011 237.376 357.343 237.557 357.662 237.469C357.982 237.381 358.174 237.055 358.097 236.732C357.263 233.701 356.082 230.776 354.576 228.016C354.198 227.321 353.137 227.941 353.516 228.636Z" fill="#E84B23"/>
<path d="M327.904 257.912L332.014 259.749C332.308 259.91 332.676 259.813 332.854 259.529C333.022 259.236 332.924 258.862 332.634 258.689L328.524 256.852C328.229 256.692 327.861 256.788 327.684 257.072C327.515 257.366 327.613 257.739 327.904 257.912H327.904Z" fill="#E84B23"/>
</svg>
